<?xml version="1.0" encoding="UTF-8"?><svg id="Layer_2" xmlns="http://www.w3.org/2000/svg" viewBox="0 0 355.1 263.86"><defs><style>.cls-1{fill:#f7f3ea;fill-rule:evenodd;}</style></defs><g id="Layer_1-2"><path class="cls-1" d="M224.59,111.84c.57.85.99,1.56,1.28,2.12l-.05.02c-.71.71-.95,1.27-.74,1.68.21.42.53.85.95,1.27.71.71,1.39,1.3,2.02,1.8.65.5,1.24,1.03,1.81,1.59.57.58.71,1.2.42,1.91-.42,1.12-.92,2.28-1.49,3.48-.57,1.2-1.13,2.44-1.7,3.7-1.86,4.67-3.7,9.27-5.55,13.86-1.86,4.59-3.62,9.27-5.34,14.07-.99,2.97-1.8,5.92-2.44,8.88-.63,2.97-1.31,6-2.02,9.09-.71,2.97-1.34,5.92-1.92,8.88-.58,2.97-.79,5.92-.65,8.88,0,1.68.05,3.37.11,5.07.08,1.68.11,3.3.11,4.86,0,.29-.05.56-.11.85-.08.27-.24.42-.53.42-1.15.83-2.13,1.33-2.99,1.48-1.84.43-3.65.82-5.43,1.17-1.78.35-3.59.74-5.43,1.15-.64.14-1.28.28-1.92.42-.64.14-1.28.28-1.92.43-1.28.27-2.64.42-4.06.42-1.84.14-3.65.18-5.43.11-1.78-.08-3.59-.18-5.43-.32-1.57-.14-3.06-.43-4.48-.85-1.42-.42-2.49-1.27-3.2-2.53-.71-1.54-1.6-3.06-2.67-4.54-1.07-1.48-1.67-3.21-1.81-5.18,0-1.12-.11-2.15-.32-3.06-.21-.91-.45-1.86-.74-2.85-.15-.69-.26-1.44-.32-2.21-.08-.77-.24-1.51-.53-2.21-.57-1.12-.99-2.26-1.28-3.38-.05-.21-.09-.43-.13-.64.13-.34.26-.69.39-1.03l.12-.33c.79-2.04.82-4.19.11-6.45,1.15-.42,1.96-1.03,2.46-1.8.5-.79.86-1.59,1.07-2.44.23-.85.44-1.73.65-2.65.21-.91.61-1.73,1.18-2.44,1.13-1.83,1.63-3.62,1.49-5.39-.15-1.76-.15-3.56,0-5.39,1.71-1.68,2.67-2.77,2.88-3.27.21-.5.03-1.38-.53-2.65.69-.71,1.46-1.3,2.23-1.8.79-.5,1.24-1.09,1.39-1.8.27-1.68.84-3.19,1.7-4.54.43-.69.89-1.4,1.37-2.15.45-.7.92-1.43,1.39-2.18.28-.56.53-1.2.74-1.91.21-.71.16-1.28-.11-1.7-.57-1.12-.52-1.89.11-2.33.63-.43,1.24-.99,1.81-1.7-1-.71-1.57-1.19-1.71-1.48.44-1.14.82-2.29,1.18-3.5.36-1.2.89-2.15,1.6-2.85,1.13-1.14,1.92-2.36,2.34-3.7.42-1.35.92-2.65,1.49-3.91.13-.29.21-.64.21-1.06s.13-.77.42-1.06c.57-1.12,1.21-2.18,1.92-3.17.71-.99,1.36-2.05,1.92-3.18l6.82-13.54c.29-1.12.99-2.04,2.13-2.74.84-.71,1.46-1.41,1.81-2.12.36-.71.82-1.48,1.39-2.33,1.28-2.39,2.41-4.86,3.41-7.39,1-2.53,1.99-4.99,2.99-7.39,1.15-3.1,2.73-5.95,4.8-8.56,2.05-2.61,3.44-5.47,4.16-8.56,0-.29.06-.5.21-.64.13-.14.28-.35.42-.64,4.11-5.21,7.37-10.99,9.8-17.34.86-1.97,1.21-3.95,1.07-5.92-.15-1.68-.47-3.24-.97-4.65-.5-1.4-1.33-2.68-2.46-3.8-.86-.56-1.28-1.27-1.28-2.12,0-1.12-.29-1.91-.86-2.33-.57-.42-1.28-.85-2.13-1.27-.99-.56-2.09-1.03-3.3-1.38-1.21-.35-2.17-.95-2.88-1.8-1.84-1.84-3.95-2.82-6.29-2.97-2.34-.14-4.74-.5-7.15-1.06-1.28-.27-2.41.08-3.41,1.06-1,.98-1.63,2.25-1.92,3.8-.58,2.68-1.57,5.48-2.99,8.45-1.55,3.53-3.19,6.98-4.9,10.36-1.71,3.38-3.14,6.9-4.27,10.57-1.13,3.67-2.59,7.17-4.37,10.47-1.78,3.3-3.38,6.8-4.8,10.46-1.42,3.67-2.99,7.23-4.69,10.68-1.7,3.46-3.41,7.02-5.11,10.68-.29.71-.53,1.41-.74,2.12-.21.71-.47,1.41-.74,2.12-1.61,3.61-3.24,7.2-4.86,10.75l-.25.55c-1.7,3.74-3.33,7.51-4.9,11.31-5.11,12.12-9.8,24.17-14.07,36.15-3.27,8.76-6.26,17.42-8.96,26.01-1.28,3.67-2.44,7.36-3.51,11.1-1.07,3.74-1.96,7.43-2.67,11.1-2.28,11.85-4.19,23.98-5.76,36.37-.42,3.53-.68,7.01-.74,10.47-.06,3.45.11,6.86.53,10.25,1.28,7.47,5.61,12.04,13,13.74.4-.5.75-.96,1.08-1.39.14-.18.27-.36.4-.52.42-.58.78-1.2,1.07-1.91.57-1.12,1.31-1.62,2.23-1.48.94.14,1.75-.21,2.46-1.06.71-2.53,1.6-5.18,2.67-7.92,1.07-2.74,1.54-5.6,1.39-8.56-.15-.83.03-1.76.53-2.74.5-.99.89-1.99,1.18-2.97.17-.48.33-.96.49-1.44.12-.36.24-.73.37-1.09.28-.83.42-1.68.42-2.53.29-2.25.71-4.47,1.28-6.66.57-2.18,1.21-4.33,1.92-6.45.57-1.56.92-3.1,1.07-4.65.15-1.56.86-2.97,2.13-4.23.29-.29.39-.64.32-1.06-.08-.42-.11-.77-.11-1.06l-.85-6.31c1.42-.7,2.01-1.52,1.81-2.43-.15-.67-.33-1.4-.53-2.19-.07-.29-.14-.58-.22-.88h1.63v.02c.42,1.12.78,2.28,1.07,3.48s.71,2.37,1.28,3.5c.99,2.53,2.26,4.86,3.83,6.98,2.26,3.24,4.82,6.41,7.67,9.51.73.71,1.47,1.35,2.25,1.91.79.58,1.6,1.2,2.46,1.91.71.42,1.39.91,2.02,1.48.63.56,1.31.98,2.02,1.27,1.71.56,3.27,1.48,4.69,2.74,1.42,1.27,3.12,1.83,5.11,1.68.15,0,.36.13.65.42.57.71,1.28,1.17,2.13,1.38.86.21,1.71.32,2.56.32s1.67.05,2.44.11c.79.06,1.54.38,2.25.95,0,.42.23.42.65,0,1.13-.71,2.23-.83,3.3-.42,1.05.42,2.17.5,3.3.21,1.99-.29,3.98-.29,5.97,0,1.99.29,3.98-.21,5.97-1.48h1.07c1.13-.29,2.23-.5,3.3-.64,1.05-.14,2.17-.35,3.3-.64,1.55-.42,3.01-.91,4.37-1.48,1.34-.56,2.8-1.06,4.37-1.48h.42c.69-.14,1.46-.21,2.23-.21s1.52-.13,2.23-.42c.64-.27,1.28-.54,1.91-.81.36-.15.72-.31,1.08-.46,1-.42,2.07-.91,3.2-1.48l.41-.18c1.85-.79,3.67-1.57,5.46-2.36,1.91-.83,3.8-1.75,5.64-2.74,2.85-1.56,5.58-3.14,8.21-4.76,2.62-1.62,5.29-3.21,7.99-4.76,1.71-.99,3.2-2.23,4.48-3.7,1.28-1.48,2.91-2.44,4.9-2.85.15,0,.44-.22.86-.64.57-.71,1.15-1.35,1.71-1.91.57-.56,1.13-1.2,1.7-1.91.29-.27.57-.42.86-.42.86-.56,1.68-1.03,2.46-1.38.79-.35,1.54-.82,2.25-1.38,1.84-1.14,3.9-2.47,6.18-4.03.71-.43,1.31-.88,1.81-1.38l1.6-1.59c.29-.27.5-.53.65-.74.15-.21.36-.45.65-.74.5-.35,1-.71,1.5-1.06.5-.35.99-.71,1.5-1.06,1-.71,1.92-1.48,2.78-2.33,1.97-1.7,3.86-3.42,5.64-5.18l5.43-5.39c1.7-1.56,3.41-3.14,5.11-4.76s3.33-3.27,4.9-4.97c1-1.12,2-2.28,2.99-3.48,1-1.2,1.71-2.5,2.13-3.91.71-1.56,1.65-2.73,2.78-3.5,1.13-.77,1.99-1.86,2.56-3.27.28-1.12.78-1.91,1.49-2.33,1.28-.85,2.2-1.91,2.77-3.18.57-1.27,1.21-2.53,1.92-3.8.44-.85.95-1.62,1.6-2.33.63-.69.89-1.62.74-2.74v-.21c2.83-3.24,4.54-6.48,5.11-9.72.29-.85.5-1.73.65-2.65.15-.91.36-1.8.65-2.65.15-.71.32-1.36.53-2,.21-.63.32-1.3.32-2-.15-1.41-.08-2.82.21-4.23.28-1.4-.08-2.68-1.07-3.8v-.64c-.15-.43-.21-.83-.21-1.17s-.15-.66-.44-.95c-.71-.98-1.46-1.94-2.23-2.85-.78-.91-1.58-1.8-2.44-2.65-.73-.71-1.47-1.3-2.25-1.8-.79-.5-1.54-1.03-2.25-1.59-.28-.29-.6-.5-.95-.64-.36-.14-.53-.35-.53-.64-.29-1.12-.86-1.86-1.71-2.21-.84-.34-1.78-.66-2.77-.95-.42-.14-.81-.35-1.16-.64-.36-.29-.74-.56-1.18-.85-.41-.26-.84-.56-1.31-.89l-.08-.06c-.49-.34-.89-.66-1.16-.95-.57.56-1.03,1.06-1.39,1.48-.36.43-.68.64-.95.64-1.57.29-3.2.47-4.9.53-1.7.08-3.33.18-4.9.32-.86,0-1.7.05-2.56.11-.84.08-1.84.18-2.98.32.42-.56.74-1.06.95-1.48.21-.43.45-.71.74-.85,1.99-1.12,3.3-2.63,3.95-4.54.63-1.91,1.73-3.5,3.3-4.76v-.21c.44-.56.82-1.12,1.18-1.68.34-.58.74-1.14,1.16-1.7,1.13-1.41,2.2-2.76,3.2-4.03,1-1.28,2.07-2.61,3.2-4.03v-.42c.27-.37.54-.73.81-1.09.16-.2.31-.41.46-.61.42-.56.86-1.2,1.28-1.91.27-.29.53-.5.74-.64.23-.14.32-.35.32-.64.71-2.39,1.36-4.78,1.92-7.18.27,0,.71-.29,1.28-.85,2.28-3.1,3.77-6.62,4.48-10.57.42-1.83.68-3.67.74-5.5.06-1.83.18-3.74.32-5.71.28-1.97.28-3.88,0-5.71-.29-1.83-.94-3.59-1.92-5.29-1.28-2.26-2.64-4.86-4.06-7.83,0-.13-.06-.27-.21-.42-.15-.13-.15-.27,0-.42.55-1.56.42-2.68-.44-3.38l-.21-.18c-.77-.64-1.48-1.22-2.13-1.73-1.13-.85-2.34-1.56-3.62-2.12l-3.83-1.68c-.86-.27-1.75-.53-2.67-.74-.94-.21-1.75-.45-2.46-.74-.42.27-.86.59-1.28.95-.42.35-.86.59-1.28.74-3.7.42-7.29,1.33-10.77,2.74-3.48,1.41-6.92,2.89-10.33,4.44-2.28,1.12-4.51,2.21-6.71,3.27-2.2,1.06-4.37,2.29-6.5,3.7-3.27,2.12-6.53,4.27-9.8,6.45-3.28,2.18-6.55,4.47-9.82,6.86-1.57,1.14-3.02,2.29-4.37,3.5-1.36,1.19-2.73,2.36-4.16,3.48-2.99,2.53-5.9,5.04-8.75,7.51-2.85,2.47-5.68,5.04-8.52,7.71-2.56,2.41-4.98,4.89-7.24,7.51-2.26,2.61-4.62,5.18-7.03,7.71-.57.72-1.13,1.28-1.7,1.7-.57.43-1.07.99-1.49,1.7-.99,1.41-1.84,2.82-2.55,4.23-.71,1.41-1.84,2.41-3.41,2.97.29,1.56.57,2.74.86,3.59.15.58.29,1.2.44,1.91.15.71.44,1.12.86,1.27.93.24,1.88.46,2.86.69.22.05.45.11.67.16,1.21.29,2.46.35,3.74.21.57-.13,1.07-.63,1.49-1.48.42-.85.92-1.62,1.49-2.33l.65-.64.93-1.08c2.1-2.45,4.22-4.91,6.32-7.37,2.41-2.81,4.9-5.63,7.45-8.45,1.42-1.56,2.85-3.14,4.27-4.76,1.42-1.62,3.06-3.13,4.9-4.54,1.99-1.56,3.93-3.27,5.85-5.18,1.92-1.89,3.95-3.69,6.08-5.39,2.12-1.56,4.25-3.21,6.39-4.97,2.12-1.76,4.25-3.48,6.39-5.18,1.42-1.12,2.8-2.15,4.16-3.06,1.34-.91,2.73-1.94,4.16-3.06.71-.42,1.29-.95,1.71-1.59.42-.64.99-1.09,1.7-1.38.71-.42,1.37-.74,2.02-.95.63-.21,1.31-.53,2.02-.95,1.13-.56,2.23-1.06,3.3-1.48,1.07-.42,1.96-1.27,2.67-2.53,0-.27.23-.42.65-.42s.78-.06,1.07-.21c.42-.14.89-.21,1.39-.21s.81-.13.95-.42c.29-.99.82-1.62,1.6-1.91.79-.29,1.54-.64,2.25-1.06,2.13-.85,4.22-1.73,6.29-2.65,2.05-.91,4.16-1.94,6.29-3.06,1.28-.56,1.92-.21,1.92,1.06.15,1.27.15,2.47,0,3.59-.15,1.27-.24,2.53-.32,3.8-.08,1.27-.68,2.41-1.81,3.38-.42.43-.5.71-.21.85.28,1.27.28,2.53,0,3.8-.29,1.27-.71,2.47-1.28,3.59-.84,1.97-1.78,3.88-2.77,5.71-1,1.84-2.07,3.67-3.2,5.5-2.43,3.8-4.87,7.57-7.36,11.31-2.49,3.74-5.14,7.44-7.99,11.1-2.28,2.82-4.66,5.45-7.15,7.92-2.49,2.47-4.95,5.04-7.36,7.71-.29.29-.5.47-.65.53-.15.08-.28.24-.42.53-.84.98-1.52,1.48-2.02,1.48s-1.1-.48-1.81-1.48c-.29-.42-.57-.8-.86-1.15-.29-.35-.65-.66-1.07-.95-1.99-1.14-3.98-2.12-5.97-2.97-.42-.29-.81-.5-1.16-.64-.37-.14-.68-.35-.97-.64-.71-1.14-1.6-1.76-2.67-1.91-1.07-.14-2.17-.35-3.3-.64-1.13-.14-2.25-.21-3.3-.21s-2.17-.06-3.3-.21c-2.43-.14-4.03,0-4.8.42-.79.42-1.6,1.62-2.46,3.59-1.55,3.51-3.01,7.01-4.37,10.46-1.34,3.45-2.8,6.86-4.37,10.25-1.13,2.68-2.23,5.36-3.3,8.03-1.05,2.68-2.17,5.29-3.3,7.83l-.53,1.06c-.21.43-.45.64-.74.64-1.15,0-2.39.24-3.74.74-1.36.5-2.6.26-3.74-.74-.29-.27-.65-.42-1.07-.42l-.21.21ZM180.69,215.75c-1.57-.06-2.64-.38-3.2-.95.57-.56,1.1-.98,1.6-1.27.5-.29,1.1-.21,1.81.21.29.27.68.35,1.18.21.49-.14.89-.21,1.16-.21.57.29.92.56,1.07.85-.15.13-.21.27-.21.42s-.06.21-.21.21c-.57.42-1.63.59-3.2.53ZM183.23,216.92c.73-1.27,1.71-1.76,2.99-1.48-.86,1.12-1.49,1.91-1.92,2.33-.15.14-.5.21-1.07.21v-1.06ZM187.38,218.39c-.5.14-1.1.35-1.81.64v-.02c.58-1.56,1.57-2.33,2.99-2.33-.15,0,0,.35.42,1.06-.57.29-1.1.5-1.6.64ZM197.73,215.01c0,.29.06.5.21.64l.02-.02,1.07-1.06c-1.55-1.56-1.7-2.33-.42-2.33.57.14,1.42.63,2.55,1.48v.21c0,.43.06.71.21.85,1.84-.83,3.54-1.68,5.11-2.53.27-.13.78-.21,1.49-.21.28-.14.53-.26.74-.32.21-.08.45-.18.74-.32.29-.29.57-.64.86-1.06.29-.42.57-.56.86-.42.57.14,1.07.35,1.49.64.42.29.92.56,1.49.85.15.14.21.32.21.53s-.06.32-.21.32c-.42.42-.86.8-1.28,1.15-.42.35-.86.59-1.28.74-1.42.43-2.8.82-4.16,1.17-1.36.35-2.73.66-4.16.95-1.84.29-3.64.64-5.34,1.06-1.71.42-3.49.77-5.34,1.06-1.55.43-2.05-.42-1.49-2.53.29-.83.65-1.51,1.07-2,.42-.5,1.21-.67,2.34-.53-.15.29-.21.56-.21.85s-.06.56-.21.85c.15.14.27.21.42.21l1.71-1.7.74.74c.07.07.14.13.21.21.16.16.34.33.53.53ZM216.49,215.86c.99-.85,1.78-.5,2.34,1.06-1,.27-1.92.59-2.78.95-.84.35-1.78.66-2.77.95-.13,0-.28-.06-.42-.21-.15-.13-.37-.27-.65-.42.28-.14.45-.32.53-.53.08-.21.18-.32.32-.32.58-.27,1.15-.53,1.71-.74.57-.21,1.13-.45,1.7-.74ZM216.06,181.63c-.41.41-.64.76-.64,1.05-.29.85-.47,1.73-.53,2.65-.06.91-.26,1.88-.53,2.85,0,.14.06.29.21.42l.42.42c.71-.29,1.13-.64,1.28-1.06.15-.29.18-.59.11-.95-.06-.35.03-.67.32-.95.86-1.41.65-2.88-.64-4.43ZM215.65,178.67c.41.28.76.55,1.05.84.27.29.57.5.86.64.15,0,.42-.18.86-.53.42-.35.57-.59.42-.74-.15-.56-.65-1.27-1.49-2.12-.29.42-.86,1.06-1.7,1.9ZM220.65,171.04c-.21.56-.47,1.27-.74,2.12l-.02-.05c-.86-.98-1.25-1.89-1.18-2.74.06-.85.32-1.62.74-2.33.57-1.12,1.03-2.21,1.39-3.27.36-1.04.53-2.21.53-3.48s.36-2.53,1.07-3.8c.71-1.27,1.36-2.47,1.92-3.59,0-.27.11-.42.32-.42s.45-.06.74-.21c.28.56.36.91.21,1.06-.71,1.97-1.36,3.83-1.92,5.6-.57,1.76-1.13,3.62-1.7,5.6-.27.71-.42,1.33-.42,1.91s-.13,1.2-.42,1.91c-.15.58-.32,1.14-.53,1.7ZM235.57,199.9c-.08-.06-.11-.24-.11-.53l.02.03c2.12.85,3.75.14,4.9-2.12.15-.13.24-.21.32-.21s.18-.06.32-.21c1.84-.98,3.7-1.94,5.55-2.86.61-.3,1.22-.6,1.84-.91,1.27-.63,2.58-1.27,3.91-1.94,1.55-.71,3.01-1.52,4.37-2.44,1.34-.91,2.73-1.73,4.16-2.44.27-.27.53-.42.74-.42s.45-.06.74-.21c.71-.29,1.07-.56,1.07-.85,0-.85.24-1.49.74-1.91.5-.42,1.1-.77,1.81-1.06,1.55-.71,3.01-1.54,4.37-2.53,1.34-.98,2.73-1.89,4.16-2.74.22-.1.43-.2.64-.31.07-.04.14-.07.22-.11.29-.14.57-.21.86-.21.15,0,.36.06.65.21.27.13.42.27.42.42,0,.29-.11.56-.32.85-.21.27-.39.42-.53.42-1.41.14-2.59.67-3.51,1.59-.92.93-1.96,1.73-3.09,2.44l-12.79,8.88c-1.13.83-2.34,1.57-3.62,2.21-1.28.64-2.26,1.46-2.98,2.44-1,1.14-2.07,1.94-3.2,2.44-1.15.48-2.22,1.23-3.2,2.21-.57.42-1.24.74-2.02.95-.79.21-1.54.45-2.25.74-.71.29-1.28.53-1.7.74-.13.07-.27.13-.42.21-.32.16-.68.33-1.07.53-1.28.71-2.52,1.35-3.74,1.91-1.21.56-2.46,1.12-3.74,1.68-.29.13-.53.27-.74.42-.21.13-.45.27-.74.42-.29.14-.58.19-.86.11-.29-.08-.58-.11-.86-.11v-.85c0-.29.06-.5.21-.64,1.13-.71,2.2-1.35,3.2-1.91,1-.56,1.99-1.2,2.99-1.91.55-.27,1.13-.59,1.7-.95.57-.34,1.13-.74,1.7-1.15,0-.14-.05-.26-.11-.32ZM230.35,212.7c-.42,0-.92.13-1.49.42v.03c.44.85.71,1.49.86,1.91-.99.56-1.73.63-2.23.21-.5-.42-.97-.91-1.39-1.48,0-.14.06-.39.21-.74.13-.35.27-.53.42-.53.84,0,1.41-.24,1.7-.74.29-.5.57-1.09.86-1.8.71-1.14,1.55-1.41,2.56-.85h.86c.29,0,.57-.06.86-.21,1.28-.56,2.52-1.09,3.74-1.59,1.21-.5,2.46-1.03,3.74-1.59.29-.14.57-.32.86-.53.29-.21.57-.45.86-.74.57-.27,1.07-.66,1.49-1.15.42-.5.84-.88,1.28-1.17.71-.29,1.37-.5,2.02-.64.63-.14,1.31-.35,2.02-.64.42,0,.78-.13,1.07-.42.71-1.41,1.71-2.42,2.99-3.06,1.28-.63,2.56-1.3,3.83-2l.65-.64c.71-.42,1.13-.56,1.28-.42.57,0,.86.35.86,1.06,0,.56-.29.98-.86,1.27-1,.71-1.96,1.27-2.88,1.68s-1.89.91-2.88,1.48c-.42.29-.79.64-1.07,1.06-.29.42-.58.85-.86,1.27-.29.29-.5.53-.65.74-.15.21-.37.39-.65.53-.71.27-1.37.59-2.02.95-.63.35-1.31.66-2.02.95l-10.24,4.44c-.71.42-1.46.85-2.23,1.27-.12.06-.24.13-.36.19-.68.36-1.37.72-2.09,1.08-.29.27-.65.42-1.07.42ZM238.66,171.57c.42-.77.92-1.51,1.49-2.21l.05-.11c-1.13-.71-1.2-1.7-.21-2.97.15-.29.15-.56,0-.85-.15-.29-.21-.56-.21-.85v-1.48c.29.14.53.21.74.21s.45.06.74.21l1.28,1.27c.28-1.12.6-2.26.95-3.38s.66-2.26.95-3.38c.15-.42.32-.85.53-1.27.21-.42.45-.85.74-1.27.04-.07.09-.13.13-.19.23-.34.44-.66.62-.96.21-.34.03-.66-.53-.95-.27-.14-.42-.43-.42-.85s-.07-.91-.21-1.48c.71.29,1.2.47,1.49.53.29.08.57.18.86.32.26-.67.56-1.39.9-2.19l.06-.13c.36-.85.74-1.62,1.18-2.32.42-.98.89-1.89,1.39-2.74.5-.83,1.03-1.75,1.6-2.74l5.11-10.78c.15-.14.24-.32.32-.53.06-.21.24-.32.53-.32.71-.27,1.24-.77,1.6-1.48.36-.71.66-1.41.95-2.12.71-1.96,1.84-3.48,3.41-4.54,1.55-1.06,3.19-1.72,4.9-2,2.13-.42,4.06-1.2,5.76-2.33.85-.56,1.7-1.13,2.55-1.69.85-.57,1.71-1.13,2.56-1.69.71-.42,1.46-.66,2.23-.74.79-.06,1.54-.24,2.25-.53.57-.29,1.07-.5,1.49-.64.44-.14.78-.35,1.07-.64,1.28-1.12,2.55-2.21,3.83-3.27,1.28-1.06,2.49-2.15,3.62-3.27,1.42-1.12,2.99-2.04,4.69-2.74,1.71-.42,3.38-.91,5.01-1.48,1.63-.56,3.3-1.2,5.01-1.91h.42l.73-.21c2.74-.78,5.44-1.54,8.11-2.32,2.91-.85,5.85-1.62,8.85-2.33.71-.27,1.37-.42,2.02-.42h2.02c.71,0,1.07.35,1.07,1.06,0,1.56-.13,2.68-.42,3.38-1.84,6.21-4.62,12.2-8.31,17.98-1.15,2.12-2.39,4.2-3.74,6.24-1.34,2.05-2.8,3.99-4.37,5.82-3.27,3.82-6.53,7.54-9.8,11.21-1.63,1.84-3.27,3.67-4.9,5.5-1.63,1.83-3.27,3.66-4.9,5.5-2.28,2.39-4.66,4.62-7.15,6.66-2.49,2.05-5.01,4.06-7.57,6.03-3.28,2.41-6.55,4.83-9.82,7.3-3.27,2.47-6.53,4.97-9.8,7.51-1.29.83-2.52,1.76-3.74,2.74-1.21.98-2.52,1.89-3.95,2.74-1.42.85-2.85,1.67-4.27,2.44-1.16.64-2.36,1.29-3.61,1.97-.29.15-.57.31-.86.47-1.57.85-3.12,1.73-4.69,2.65-1.57.93-3.12,1.8-4.69,2.65-.58.29-1.15.5-1.71.64-.57.14-1.13.35-1.7.64-.42.29-.84.53-1.28.74-.42.21-.86.45-1.28.74-.29.14-.53.26-.74.32h-.04c-.2.09-.45.18-.71.32,0-.71.07-1.19.21-1.48.28-1.41.49-2.41.63-2.97.42-1.41.78-2.77,1.07-4.12.28-1.33.71-2.71,1.28-4.12l1.7-4.23c.58-1.4,1.5-2.68,2.78-3.8.28-.27.42-.66.42-1.15s.13-.96.42-1.38c.42-.69.86-1.44,1.28-2.21ZM275.76,183.93v.85h.02c-.36.14-.71.28-1.07.43-.36.14-.71.28-1.07.43-.36.14-.71.28-1.07.42-.36.14-.71.28-1.07.43v-1.06c.84-.85,1.76-1.49,2.77-1.91.28-.14.53-.14.74,0,.21.13.45.27.74.42ZM287.81,175.06c-.08-.13-.24-.27-.53-.42.44-.29.82-.56,1.18-.85.31-.27.68-.52,1.07-.78l.1-.07.65.64c-.29.27-.65.59-1.07.95-.42.35-.78.66-1.07.95-.15-.13-.26-.27-.32-.42ZM125.18,110.82s.05-.02.07-.03c.03.02.05.04.08.06l-.11.05v.02s-.21.21-.21.21c.03-.06.06-.11.09-.17l-.05.02.07-.07s.03-.06.05-.09ZM125.18,110.82c-1.51.69-2.09,1.39-1.74,2.08.36.71.97,1.41,1.81,2.12-.71.56-1.28,1.2-1.7,1.91-.42.71-.89,1.38-1.39,2-.5.64-1.07,1.12-1.7,1.48-.65.35-1.46.53-2.46.53.57,1.83.71,3,.42,3.5-.29.5-1.49,1.44-3.62,2.85-.29.85-.5,1.62-.65,2.33-.15.71-.42,1.2-.86,1.48-.71.71-1.21,1.44-1.49,2.21-.29.77-.5,1.59-.65,2.44-.57,2.53-1.63,4.54-3.2,6.03-1.57,1.48-3.14,3-4.69,4.54l-2.13,5.5c-1.84,3.67-3.91,7.26-6.18,10.78-.86,1.34-1.73,2.67-2.59,4.01-1.41,2.19-2.82,4.38-4.24,6.56-1.28,1.7-2.39,3.46-3.3,5.29-.92,1.83-1.96,3.59-3.09,5.29-.71,1.27-1.46,2.47-2.23,3.59s-1.39,2.47-1.81,4.03c-.29,1.41-.89,2.79-1.81,4.12l-.15.21c-.87,1.27-1.71,2.5-2.52,3.7-1.42,2.12-2.77,4.23-4.06,6.33-1.28,2.12-2.7,4.23-4.27,6.35-1.7,2.68-3.56,3.03-5.55,1.06-1-1.27-2.43-1.97-4.27-2.12-.71,0-1.39-.35-2.02-1.06-.65-.71-1.1-1.41-1.39-2.12-.71-2.68-.99-5.15-.86-7.39.71-4.94,1.63-9.83,2.77-14.69,1.13-4.86,2.49-9.75,4.06-14.69.71-2.39,1.36-4.83,1.92-7.3.57-2.47,1.21-4.89,1.92-7.3.99-3.53,1.96-7.01,2.88-10.47.92-3.45,1.96-6.94,3.09-10.47.86-3.1,1.67-6.16,2.46-9.19.78-3.03,1.67-6.09,2.67-9.19.57-1.97,1.16-3.95,1.81-5.92.65-1.97,1.25-3.95,1.81-5.92l1.07-4.65c-1.57.85-2.67,1.88-3.3,3.06-.65,1.2-1.24,2.36-1.81,3.5-1.42,3.24-2.99,6-4.69,8.24-1.13,1.56-2.02,3.21-2.67,4.97-.65,1.76-1.31,3.48-2.02,5.18-1,1.97-1.99,3.88-2.99,5.71-.99,1.83-1.92,3.74-2.77,5.71-1.15,1.97-2.13,3.95-2.99,5.92-.86,1.97-1.84,3.95-2.98,5.92-1.71,3.1-3.44,6.17-5.22,9.19-1.78,3.03-3.44,6.09-5.01,9.19-.71,1.41-1.28,2.79-1.71,4.12-.42,1.35-1,2.71-1.7,4.12-.42.85-.86,1.62-1.28,2.33-.42.71-1.13,1.35-2.13,1.91-1.42.99-2.49,2.41-3.2,4.23-.71,1.12-1.21,2.36-1.49,3.7-.29,1.35-.65,2.65-1.07,3.91-.57,2.41-1.25,4.68-2.02,6.86-.78,2.18-2.23,4.2-4.37,6.03-.42.42-.74.91-.95,1.48-.14.36-.29.76-.46,1.19-.09.23-.19.47-.28.72l-1.49,2.97c-.15.42-.39.85-.74,1.27-.36.42-.68.85-.95,1.27-.29.42-.47.85-.53,1.27-.06.42.18.91.74,1.48-1.42,1.97-1.99,4.3-1.71,6.98,0,1.12-.03,2.29-.11,3.5-.06,1.2.68,2.15,2.23,2.85-.71,0-1.42.11-2.13.32-.71.21-1.42.24-2.13.11-4.4-.71-7.81-2.71-10.24-6.03-2.41-3.3-3.41-7.01-2.99-11.1.57-3.8,1.25-7.57,2.02-11.31.78-3.74,1.96-7.42,3.53-11.1,1.57-4.23,3.02-8.45,4.37-12.69,1.36-4.23,2.88-8.45,4.58-12.69,1.71-4.23,3.48-8.42,5.34-12.57,1.84-4.15,3.69-8.28,5.55-12.36,2.99-6.77,5.97-13.46,8.96-20.08,2.99-6.62,6.05-13.33,9.17-20.08,1.99-4.23,4.09-8.42,6.29-12.57,2.2-4.15,4.37-8.36,6.5-12.57l9.8-20.3c3.27-6.77,6.53-13.54,9.82-20.3.71-1.27,1.46-2.44,2.23-3.48.78-1.06,1.88-2.08,3.3-3.06.86.85,1.78,1.44,2.78,1.8.99.35,2.1.59,3.3.74,1.21.14,2.38.24,3.53.32,1.13.06,2.2.32,3.2.74,0,.42-.21,1.06-.65,1.91l4.69.85c1.84.14,3.2.77,4.06,1.91.86,1.12,1.42,2.47,1.7,4.01.15,1.27.42,2.41.86,3.38.42.99,1.21,1.83,2.34,2.53,1.57.85,2.52,2.08,2.88,3.7.36,1.62.18,3.35-.53,5.18-.71,2.12-1.6,4.27-2.67,6.45-1.07,2.18-1.75,4.33-2.02,6.45-.29,2.26-.92,4.33-1.92,6.24-1,1.91-1.63,3.98-1.92,6.24-.29,2.26-.92,4.47-1.92,6.66-.99,2.18-1.84,4.41-2.55,6.66-1,2.53-1.84,5.07-2.56,7.62-.71,2.53-1.49,5-2.34,7.39-.71,1.83-1.46,3.62-2.23,5.39-.78,1.76-1.54,3.56-2.23,5.39-1.13,2.82-2.28,5.53-3.41,8.15-1.15,2.61-2.13,5.32-2.99,8.15-1.13,3.67-2.35,7.26-3.62,10.78-1.28,3.53-2.55,7.12-3.83,10.78-.15.29-.29.5-.42.64-.15.14-.21.35-.21.64-.29,1.7-.6,3.35-.97,4.97-.36,1.62-1.03,3.27-2.02,4.97-.71,1.27-1.18,2.68-1.39,4.23-.21,1.56-.53,3.1-.95,4.65-.29,1.27-.71,2.5-1.28,3.7-.57,1.2-1.07,2.44-1.49,3.7-.29,1.12-.65,2.18-1.07,3.17-.42.99-.42,2.05,0,3.18.86.14,1.49-.03,1.92-.53.42-.5.78-1.09,1.07-1.8l3.83-6.77,11.3-17.75,17.69-27.49c.99-1.27,1.7-2.47,2.13-3.59.71-.98,1.46-1.76,2.23-2.33.78-.56,1.88-.85,3.3-.85-.29-.42-.5-.8-.65-1.17-.06-.15-.13-.32-.22-.53-.12-.29-.26-.65-.43-1.06l5.11-4.23c-.57-1.56-.44-2.97.42-4.23.86-1.27,1.84-2.68,2.99-4.23,1.57-2.12,3.06-4.3,4.48-6.56,1.42-2.26,2.91-4.51,4.48-6.77.27-.42.63-.85,1.07-1.27l1.07-1.06c.71-.98,1.49-1.94,2.34-2.85.86-.91,1.42-1.94,1.71-3.06.71-1.97,2.13-3.38,4.27-4.23,1.99-.71,3.27-1.65,3.83-2.85.57-1.2.71-2.77.42-4.76.71,0,1.31-.29,1.81-.85.5-.56,1.03-1.12,1.6-1.7.57-.56,1.18-1.06,1.81-1.48.63-.42,1.52-.5,2.67-.21-.29.71-.53,1.27-.74,1.7l-.53,1.06c-.57,1.27-1.36,2.44-2.34,3.5-.99,1.06-1.36,2.36-1.07,3.91,0,.42-.29.91-.86,1.48-.57.56-1.07,1.12-1.49,1.68l-2.13,3.17,2.77,1.06-3.41,4.23-.86-3.38c-.15,0-.24.03-.32.11-.06.06-.18.11-.32.11h-.44c-.42.71-.74,1.41-.95,2.12-.21.71-.6,1.41-1.18,2.12-.71,1.12-1.46,2.12-2.23,2.97-.78.85-1.54,1.83-2.23,2.97-.57.85-1,1.76-1.28,2.74-.26.89-.63,1.77-1.11,2.66ZM125.06,110.98l-.03.02h.02l.02-.02ZM125.34,110.84c.52.38.88.55,1.08.47.21-.06.74-.67,1.6-1.8l-2.69,1.33ZM9.49,190.07c0,1.83-.49,3.45-1.49,4.86-.86-1.12-1.21-1.91-1.07-2.33.15-.42.99-1.27,2.55-2.53ZM9.81,185.95c.21-.22.89-.26,2.02-.11l.02.02c-.57.42-1.03.8-1.39,1.15-.36.35-.82.66-1.39.95.29-1.12.53-1.8.74-2ZM11.19,181.19c.15-.42.86-1.2,2.13-2.33-.42,1.12-.71,2.08-.86,2.85-.13.79-.34,1.59-.63,2.44-.58-1.56-.79-2.55-.65-2.97ZM14.39,192.72c-.15.5-.42,1.03-.86,1.59h-1.26c.27-.56.42-1.04.42-1.48s.06-.99.21-1.7c1.13.56,1.63,1.09,1.49,1.59ZM20.58,177.18l-2.55,4.01c0-1.96.11-3.08.32-3.37.21-.29.95-.5,2.23-.64ZM20.79,159.83v.63l-1.7.64v-.85l1.7-.42ZM23.54,169.55l-.84-.63c-.15.42-.32.85-.53,1.27l-.53,1.06c0,.14.15.21.42.21l1.49-1.91ZM61.09,178.46c-.42,1.26-.64,2.04-.64,2.31,0,.14.15.5.42,1.06.15-.29.36-.5.65-.64.27-.14.42-.35.42-.64s-.06-.53-.21-.74c-.14-.21-.35-.66-.63-1.35ZM128.22,212.71c-.99.7-1.44,1.34-1.38,1.9.06.56.32.99.74,1.27h.86c.15-.42.18-.88.1-1.38-.06-.49-.18-1.08-.32-1.79ZM137.61,181.83c-.29,0-.47-.03-.53-.11-.06-.06-.26-.11-.53-.11-1,1.27-1.96,3.06-2.88,5.39-.92,2.33-1.75,4.86-2.46,7.62-.71,2.74-1.28,5.57-1.7,8.45-.44,2.89-.5,5.47-.21,7.71l8.31-28.95ZM138.89,169.24c.57-2.04,1.34-4.19,2.34-6.45l2.34.85c-1,2.1-1.89,4.15-2.67,6.13-.78,1.97-1.58,3.95-2.44,5.92-.29-2.24-.15-4.39.42-6.45ZM145.29,152.02c.42,0,.78.06,1.07.21h-.02c-.57,1.27-1.07,2.82-1.49,4.65-.57-1.12-.63-2.04-.21-2.74.44-.71.65-1.41.65-2.12ZM149.45,72.31c.5-.85,1.1-2.04,1.81-3.59h-.02c-.42,0-.86-.03-1.28-.11-.44-.06-.71.03-.86.32-.86.85-1.63,1.73-2.34,2.65-.71.91-1.49,1.88-2.34,2.85,1,.14,1.75.21,2.25.21s.95-.18,1.39-.53c.44-.35.89-.95,1.39-1.8ZM149.98,147.57l.64-1.26c-.57-.14-1.42-.5-2.55-1.06-.15.14-.21.35-.21.64,0,.14-.06.29-.21.42l2.33,1.26ZM150.85,163.86l.85.63c.29-.29.53-.64.74-1.06.21-.42.45-.77.74-1.06l-.44-.42c-.15-.14-.29-.21-.42-.21-.29.29-.53.64-.74,1.06-.21.41-.46.76-.73,1.05ZM151.27,138.47c.71-.71,1.3-1.86,1.8-3.47.5-1.62.68-3.21.53-4.76,0,.71-.18,1.41-.53,2.12-.36.71-.74,1.38-1.16,2-.42.64-.74,1.27-.95,1.91-.21.64-.11,1.37.32,2.2ZM159.57,56.45l-3.62,4.86-.95.95c-.12.12-.24.24-.36.35-.22.21-.42.41-.6.6-.29.29-.58.67-.86,1.17-.22.38-.48.81-.78,1.31-.09.16-.19.32-.29.49,3.27-.85,4.54-2.45,3.83-4.86,1.71.42,3.12-.21,4.27-1.91l2.77-4.65c-.86-.13-1.52-.03-2.02.32-.5.35-.97.82-1.39,1.38ZM153,158.99c.26,0,.48.03.62.11.15.06.36.11.65.11.57-.42,1.03-.98,1.39-1.68.36-.71.03-1.62-.95-2.74-.29.99-.57,1.76-.86,2.33-.29.55-.56,1.18-.84,1.88ZM157.02,146.31c.99-2.26,2.26-4.38,3.83-6.35v.02c.15,2.41-.36,4.59-1.49,6.56-1.13,1.97-1.99,4.01-2.56,6.13-.27.27-.6.42-.95.42s-.82.13-1.39.42c.71-2.53,1.57-4.92,2.56-7.18ZM157.47,121.14c.7-.28,1.3-.44,1.79-.52.5-.06.89-.24,1.18-.53.42-.71.71-1.48.86-2.33.15-.85-.21-1.62-1.07-2.33-1,.71-1.6,1.52-1.81,2.44-.21.91-.53,2-.95,3.26ZM163.4,107.61l-1.49,5.29v-.02c-.27-1.97-.36-3.18-.21-3.59.13-.42.69-.98,1.7-1.68ZM163.42,135.1l-1.07-.42,1.28-2.33.86.42c-.15.43-.32.82-.53,1.17-.21.35-.39.74-.53,1.15ZM164.26,104.13c.15-.35.86-.95,2.13-1.8l-1.92,4.44c-.29-1.41-.36-2.29-.21-2.65ZM164.92,52.62s-.01.02-.02.03v-.02s.01,0,.02-.02ZM168.21,48.21c-1.48,1.69-2.57,3.15-3.28,4.41.98-.84,2.08-1.43,3.28-1.78,1.21-.35,2.23-1.17,3.09-2.44.84-1.27,1.88-2.42,3.09-3.48,1.2-1.06,2.38-2.15,3.51-3.27l6.4-5.92c-1.57.71-3.3,1.73-5.22,3.06-1.92,1.35-3.83,2.82-5.76,4.44-1.91,1.62-3.62,3.27-5.11,4.97ZM172.91,85.73c.21-.35.87-1.01,2.02-2l.02-.02c-.44.71-.82,1.41-1.18,2.12-.36.71-.82,1.41-1.39,2.12.15-1.12.32-1.86.53-2.21Z"/></g></svg>