<svg width="904" height="671" viewBox="0 0 904 671" fill="none" xmlns="http://www.w3.org/2000/svg">
<path fill-rule="evenodd" clip-rule="evenodd" d="M571.689 284.419C573.13 286.581 574.2 288.375 574.941 289.803L574.818 289.844C573.006 291.638 572.389 293.065 572.924 294.126C573.459 295.186 574.283 296.287 575.353 297.348C577.164 299.142 578.893 300.651 580.498 301.915C582.144 303.18 583.667 304.525 585.108 305.953C586.549 307.421 586.919 309.012 586.178 310.806C585.108 313.661 583.832 316.597 582.391 319.656C580.951 322.715 579.51 325.855 578.069 329.077C573.336 340.945 568.643 352.649 563.951 364.313C559.217 375.977 554.731 387.886 550.367 400.08C547.856 407.624 545.798 415.129 544.152 422.673C542.547 430.218 540.818 437.926 539.007 445.797C537.196 453.342 535.59 460.846 534.108 468.391C532.627 475.936 532.091 483.44 532.462 490.985C532.462 495.267 532.585 499.549 532.75 503.872C532.956 508.154 533.038 512.273 533.038 516.229C533.038 516.963 532.915 517.657 532.75 518.391C532.544 519.084 532.133 519.451 531.392 519.451C528.469 521.572 525.958 522.836 523.777 523.203C519.084 524.304 514.474 525.283 509.946 526.18C505.418 527.077 500.808 528.056 496.116 529.117C494.491 529.483 492.866 529.84 491.242 530.197C489.615 530.554 487.988 530.911 486.36 531.278C483.109 531.971 479.651 532.338 476.029 532.338C471.336 532.705 466.726 532.787 462.198 532.624C457.671 532.42 453.06 532.175 448.368 531.808C444.375 531.441 440.588 530.707 436.966 529.647C433.344 528.586 430.627 526.425 428.816 523.203C427.005 519.288 424.741 515.414 422.024 511.661C419.308 507.909 417.785 503.505 417.414 498.489C417.414 495.634 417.126 493.024 416.591 490.699C416.056 488.374 415.438 485.968 414.697 483.44C414.327 481.686 414.039 479.769 413.874 477.812C413.668 475.854 413.257 473.978 412.516 472.184C411.075 469.329 410.005 466.433 409.264 463.579C409.132 463.04 409.025 462.494 408.943 461.941C409.273 461.067 409.605 460.189 409.939 459.308L410.252 458.481C412.269 453.301 412.351 447.836 410.54 442.086C413.463 441.026 415.521 439.476 416.797 437.518C418.073 435.52 418.978 433.481 419.514 431.319C420.09 429.158 420.625 426.915 421.16 424.59C421.695 422.266 422.724 420.186 424.165 418.391C427.046 413.742 428.322 409.174 427.952 404.688C427.581 400.202 427.581 395.634 427.952 390.985C432.315 386.703 434.743 383.93 435.279 382.665C435.814 381.401 435.361 379.158 433.92 375.936C435.69 374.142 437.625 372.633 439.601 371.369C441.618 370.104 442.77 368.595 443.141 366.801C443.84 362.519 445.281 358.685 447.463 355.259C448.566 353.514 449.736 351.692 450.954 349.794C452.098 348.012 453.285 346.164 454.501 344.248C455.201 342.821 455.86 341.189 456.395 339.395C456.93 337.6 456.806 336.132 456.107 335.072C454.666 332.217 454.789 330.259 456.395 329.158C458 328.057 459.564 326.63 461.005 324.835C458.453 323.041 457.012 321.817 456.642 321.083C457.753 318.188 458.741 315.251 459.647 312.193C460.552 309.134 461.91 306.728 463.722 304.933C466.603 302.038 468.62 298.938 469.69 295.512C470.76 292.087 472.036 288.783 473.477 285.561C473.806 284.827 474.012 283.93 474.012 282.87C474.012 281.809 474.341 280.912 475.082 280.178C476.523 277.323 478.169 274.632 479.981 272.103C481.792 269.575 483.438 266.883 484.879 264.028L502.249 229.607C502.99 226.753 504.76 224.428 507.683 222.634C509.823 220.839 511.387 219.045 512.293 217.25C513.198 215.456 514.392 213.498 515.833 211.337C519.084 205.26 521.966 198.979 524.518 192.536C527.07 186.092 529.581 179.852 532.133 173.735C535.055 165.864 539.089 158.604 544.358 151.957C549.586 145.309 553.125 138.05 554.937 130.179C554.937 129.445 555.101 128.915 555.472 128.548C555.801 128.18 556.171 127.65 556.542 126.916C566.997 113.662 575.312 98.98 581.486 82.83C583.668 77.8137 584.573 72.7974 584.203 67.7811C583.832 63.4989 583.009 59.543 581.733 55.9541C580.457 52.406 578.358 49.1433 575.476 46.2885C573.295 44.8611 572.225 43.0667 572.225 40.9052C572.225 38.0504 571.484 36.052 570.043 34.9917C568.602 33.9313 566.791 32.8302 564.61 31.7698C562.099 30.3424 559.3 29.1597 556.213 28.2625C553.125 27.3653 550.697 25.8563 548.886 23.6948C544.193 19.0048 538.842 16.5171 532.874 16.15C526.905 15.783 520.813 14.8857 514.68 13.4583C511.428 12.765 508.547 13.6623 505.995 16.15C503.443 18.6378 501.838 21.8596 501.097 25.8155C499.615 32.6263 497.104 39.7633 493.482 47.3081C489.53 56.2803 485.373 65.0486 481.01 73.6538C476.646 82.259 473.024 91.1904 470.143 100.53C467.261 109.869 463.557 118.76 459.029 127.161C454.501 135.562 450.426 144.453 446.804 153.751C443.182 163.091 439.189 172.144 434.867 180.913C430.545 189.722 426.182 198.776 421.86 208.074C421.119 209.869 420.501 211.663 419.966 213.457C419.431 215.252 418.773 217.046 418.073 218.841C413.965 228.028 409.819 237.142 405.707 246.182L405.066 247.593C400.744 257.095 396.586 266.679 392.594 276.345C379.586 307.176 367.649 337.804 356.783 368.269C348.468 390.537 340.853 412.559 333.979 434.419C330.727 443.758 327.763 453.138 325.047 462.641C322.33 472.143 320.066 481.523 318.255 490.862C312.451 521.001 307.594 551.833 303.601 583.358C302.531 592.33 301.873 601.18 301.708 609.989C301.543 618.757 301.996 627.444 303.066 636.049C306.318 655.054 317.349 666.677 336.16 671C337.173 669.739 338.083 668.559 338.921 667.473C339.276 667.014 339.617 666.571 339.947 666.147C341.018 664.679 341.923 663.088 342.664 661.294C344.105 658.439 345.998 657.175 348.344 657.542C350.732 657.909 352.79 657.012 354.601 654.85C356.412 648.406 358.676 641.677 361.393 634.703C364.109 627.729 365.303 620.47 364.933 612.925C364.562 610.805 365.015 608.439 366.291 605.951C367.567 603.423 368.555 600.894 369.296 598.407C369.719 597.196 370.128 595.972 370.54 594.742C370.849 593.818 371.16 592.89 371.477 591.963C372.177 589.842 372.548 587.681 372.548 585.519C373.289 579.81 374.359 574.141 375.799 568.594C377.24 563.048 378.887 557.583 380.698 552.2C382.138 548.244 383.044 544.329 383.414 540.373C383.785 536.417 385.596 532.828 388.848 529.606C389.589 528.872 389.836 527.975 389.671 526.914C389.465 525.854 389.383 524.957 389.383 524.223L387.217 508.187C390.828 506.395 392.346 504.317 391.812 501.996C391.419 500.291 390.96 498.431 390.467 496.435C390.288 495.71 390.104 494.967 389.918 494.207H394.075V494.247C395.145 497.102 396.051 500.038 396.792 503.097C397.533 506.156 398.603 509.133 400.044 511.988C402.555 518.431 405.806 524.345 409.799 529.728C415.562 537.966 422.065 546.041 429.31 553.913C431.162 555.707 433.056 557.338 435.031 558.766C437.048 560.234 439.106 561.824 441.288 563.619C443.099 564.679 444.828 565.943 446.433 567.371C448.039 568.798 449.767 569.859 451.579 570.593C455.942 572.02 459.893 574.345 463.516 577.567C467.138 580.788 471.46 582.216 476.523 581.849C476.893 581.849 477.428 582.175 478.169 582.909C479.61 584.703 481.421 585.886 483.603 586.416C485.784 586.947 487.966 587.232 490.106 587.232C492.247 587.232 494.346 587.354 496.322 587.518C498.339 587.681 500.232 588.496 502.043 589.924C502.043 590.984 502.619 590.984 503.69 589.924C506.571 588.129 509.37 587.803 512.087 588.863C514.762 589.924 517.602 590.128 520.484 589.394C525.547 588.659 530.61 588.659 535.673 589.394C540.735 590.128 545.798 588.863 550.861 585.642H553.578C556.459 584.907 559.258 584.377 561.975 584.01C564.651 583.643 567.491 583.113 570.372 582.379C574.324 581.319 578.028 580.054 581.486 578.627C584.902 577.2 588.607 575.935 592.6 574.875H593.67C595.44 574.508 597.374 574.345 599.35 574.345C601.326 574.345 603.219 574.018 605.031 573.284C606.655 572.609 608.28 571.918 609.894 571.231C610.815 570.839 611.733 570.448 612.646 570.062C615.198 569.002 617.914 567.738 620.796 566.31L621.847 565.862C626.549 563.855 631.179 561.878 635.737 559.867C640.594 557.746 645.41 555.422 650.103 552.893C657.347 548.937 664.304 544.9 671.013 540.78C677.681 536.661 684.473 532.624 691.347 528.668C695.71 526.139 699.497 522.999 702.749 519.247C706.001 515.495 710.158 513.048 715.221 511.988C715.592 511.988 716.333 511.417 717.403 510.356C718.843 508.562 720.325 506.931 721.766 505.503C723.207 504.076 724.647 502.445 726.088 500.65C726.829 499.957 727.529 499.59 728.27 499.59C730.451 498.162 732.55 496.98 734.526 496.082C736.543 495.185 738.437 494.003 740.248 492.575C744.94 489.68 750.168 486.295 755.972 482.339C757.783 481.237 759.306 480.096 760.582 478.831L764.657 474.794C765.398 474.1 765.933 473.448 766.303 472.918C766.674 472.388 767.209 471.776 767.95 471.042C769.227 470.144 770.493 469.246 771.76 468.348C773.025 467.452 774.29 466.555 775.565 465.658C778.117 463.864 780.463 461.906 782.645 459.745C787.666 455.422 792.482 451.058 797.01 446.572L810.841 432.869C815.163 428.913 819.526 424.876 823.848 420.757C828.17 416.637 832.327 412.437 836.32 408.114C838.872 405.259 841.424 402.323 843.935 399.264C846.487 396.205 848.298 392.902 849.368 389.313C851.179 385.357 853.567 382.38 856.448 380.422C859.329 378.465 861.511 375.691 862.952 372.103C863.651 369.248 864.927 367.249 866.739 366.189C869.99 364.028 872.337 361.336 873.777 358.114C875.218 354.892 876.864 351.67 878.676 348.449C879.787 346.287 881.104 344.329 882.751 342.535C884.356 340.781 885.015 338.416 884.644 335.561V335.031C891.847 326.793 896.211 318.555 897.651 310.317C898.392 308.155 898.927 305.912 899.298 303.587C899.668 301.263 900.203 299.02 900.944 296.858C901.315 295.064 901.767 293.392 902.302 291.76C902.838 290.17 903.126 288.457 903.126 286.663C902.755 283.074 902.92 279.485 903.661 275.896C904.361 272.348 903.455 269.085 900.944 266.23V264.599C900.574 263.498 900.409 262.478 900.409 261.622C900.409 260.765 900.039 259.95 899.298 259.216C897.487 256.728 895.593 254.281 893.617 251.956C891.642 249.632 889.583 247.389 887.402 245.227C885.55 243.433 883.656 241.924 881.68 240.66C879.663 239.395 877.77 238.049 875.959 236.622C875.259 235.888 874.436 235.358 873.53 234.991C872.625 234.624 872.172 234.093 872.172 233.359C871.431 230.505 869.99 228.629 867.809 227.731C865.668 226.875 863.281 226.059 860.77 225.325C859.7 224.958 858.712 224.428 857.806 223.694C856.901 222.96 855.913 222.266 854.802 221.532C853.75 220.876 852.661 220.11 851.466 219.27L851.262 219.126C850.027 218.27 848.998 217.454 848.298 216.72C846.857 218.147 845.664 219.412 844.758 220.472C843.852 221.573 843.029 222.103 842.33 222.103C838.337 222.837 834.179 223.286 829.857 223.449C825.535 223.653 821.378 223.898 817.385 224.265C815.204 224.265 813.063 224.387 810.882 224.55C808.741 224.754 806.189 224.999 803.308 225.366C804.378 223.939 805.201 222.674 805.736 221.614C806.272 220.513 806.889 219.82 807.63 219.452C812.693 216.598 816.027 212.764 817.673 207.911C819.279 203.058 822.078 199.02 826.07 195.798V195.268C827.182 193.841 828.17 192.413 829.075 190.986C829.94 189.518 830.969 188.09 832.039 186.663C834.92 183.074 837.637 179.648 840.189 176.427C842.741 173.164 845.458 169.779 848.339 166.19V165.13C849.02 164.195 849.718 163.277 850.412 162.365C850.807 161.844 851.202 161.326 851.591 160.807C852.661 159.379 853.773 157.748 854.843 155.954C855.542 155.219 856.201 154.689 856.736 154.322C857.312 153.955 857.559 153.425 857.559 152.691C859.371 146.614 861.017 140.538 862.458 134.42C863.157 134.42 864.269 133.686 865.709 132.259C871.513 124.388 875.3 115.415 877.111 105.383C878.182 100.734 878.84 96.0436 879.005 91.3943C879.169 86.7451 879.458 81.8919 879.828 76.8756C880.528 71.8594 880.528 67.0062 879.828 62.357C879.087 57.7077 877.441 53.2216 874.93 48.8986C871.678 43.1482 868.22 36.5414 864.598 28.9966C864.598 28.6703 864.433 28.3033 864.063 27.9362C863.693 27.61 863.693 27.2429 864.063 26.8759C865.463 22.92 865.133 20.0652 862.952 18.2707L862.412 17.8268C860.443 16.2066 858.644 14.7263 856.983 13.4176C854.102 11.2561 851.015 9.46162 847.763 8.03422L838.008 3.75202C835.826 3.05871 833.562 2.40619 831.216 1.87601C828.828 1.34583 826.77 0.734091 824.959 0C823.889 0.693308 822.778 1.50896 821.707 2.40619C820.637 3.30341 819.526 3.91515 818.456 4.2822C809.029 5.34255 799.891 7.66717 791.042 11.2561C782.192 14.845 773.424 18.597 764.739 22.5529C758.935 25.4077 753.255 28.1809 747.657 30.8726C742.059 33.5643 736.543 36.7046 731.11 40.2934C722.795 45.6768 714.48 51.1417 706.166 56.6881C697.81 62.2346 689.495 68.0666 681.18 74.1432C677.187 77.0388 673.483 79.9752 670.066 83.0339C666.609 86.0518 663.11 89.0289 659.488 91.8837C651.873 98.3274 644.464 104.69 637.219 110.97C629.975 117.251 622.771 123.776 615.527 130.587C609.023 136.704 602.849 143.025 597.086 149.673C591.324 156.321 585.314 162.846 579.181 169.29C577.74 171.125 576.299 172.552 574.859 173.613C573.418 174.714 572.142 176.141 571.072 177.936C568.561 181.524 566.379 185.113 564.568 188.702C562.757 192.291 559.876 194.82 555.883 196.247C556.624 200.203 557.324 203.221 558.065 205.382C558.435 206.851 558.806 208.441 559.176 210.236C559.547 212.03 560.287 213.09 561.358 213.457C563.738 214.055 566.145 214.626 568.624 215.214C569.189 215.348 569.758 215.483 570.331 215.619C573.418 216.353 576.588 216.516 579.839 216.149C581.28 215.823 582.556 214.559 583.626 212.397C584.696 210.236 585.972 208.278 587.413 206.484L589.06 204.852L591.45 202.071C596.795 195.852 602.163 189.606 607.5 183.36C613.633 176.223 619.972 169.045 626.476 161.867C630.098 157.911 633.72 153.874 637.343 149.755C640.965 145.636 645.122 141.802 649.815 138.213C654.878 134.257 659.817 129.893 664.715 125.04C669.614 120.228 674.759 115.66 680.192 111.337C685.585 107.381 691.018 103.181 696.451 98.6945C701.844 94.2084 707.277 89.8446 712.71 85.5216C716.333 82.6668 719.831 80.0567 723.289 77.7321C726.705 75.4075 730.245 72.7974 733.868 69.9426C735.679 68.8822 737.161 67.5364 738.231 65.9051C739.301 64.2738 740.742 63.1318 742.553 62.3977C744.364 61.3374 746.052 60.5217 747.698 59.9916C749.303 59.4614 751.032 58.6457 752.843 57.5854C755.725 56.158 758.524 54.8937 761.24 53.8333C763.957 52.773 766.221 50.6115 768.032 47.3897C768.032 46.6964 768.608 46.3293 769.679 46.3293C770.749 46.3293 771.654 46.1662 772.395 45.7991C773.465 45.4321 774.659 45.269 775.935 45.269C777.211 45.269 777.993 44.9427 778.364 44.2086C779.105 41.6801 780.463 40.0895 782.439 39.3554C784.456 38.6213 786.349 37.7241 788.16 36.6638C793.594 34.5023 798.904 32.2592 804.172 29.9346C809.4 27.61 814.751 24.9999 820.184 22.1451C823.436 20.7177 825.083 21.6149 825.083 24.8367C825.453 28.0586 825.453 31.1173 825.083 33.9721C824.712 37.1939 824.465 40.4158 824.259 43.6376C824.054 46.8595 822.531 49.7551 819.649 52.2428C818.579 53.344 818.373 54.0373 819.114 54.4043C819.814 57.6262 819.814 60.848 819.114 64.0698C818.373 67.2917 817.303 70.3504 815.862 73.2052C813.722 78.2215 811.335 83.0746 808.824 87.7239C806.272 92.4139 803.555 97.0632 800.674 101.712C794.499 111.378 788.284 120.962 781.945 130.464C775.606 139.967 768.855 149.388 761.611 158.686C755.807 165.864 749.756 172.552 743.417 178.833C737.078 185.113 730.822 191.639 724.688 198.449C723.948 199.183 723.412 199.632 723.042 199.795C722.672 199.999 722.342 200.407 721.972 201.141C719.831 203.629 718.103 204.893 716.827 204.893C715.55 204.893 714.028 203.669 712.216 201.141C711.475 200.081 710.776 199.102 710.035 198.205C709.294 197.307 708.388 196.532 707.318 195.798C702.255 192.903 697.192 190.415 692.129 188.254C691.059 187.519 690.071 186.989 689.166 186.622C688.219 186.255 687.437 185.725 686.696 184.991C684.885 182.095 682.621 180.505 679.904 180.138C677.187 179.771 674.388 179.241 671.507 178.506C668.626 178.139 665.786 177.976 663.11 177.976C660.435 177.976 657.594 177.813 654.713 177.446C648.539 177.079 644.464 177.446 642.488 178.506C640.471 179.567 638.413 182.626 636.231 187.642C632.28 196.573 628.575 205.464 625.118 214.232C621.701 223.001 617.997 231.687 614.004 240.292C611.122 247.103 608.323 253.914 605.607 260.725C602.931 267.535 600.091 274.183 597.21 280.627L595.851 283.318C595.316 284.42 594.699 284.95 593.958 284.95C591.035 284.95 587.866 285.561 584.449 286.826C580.992 288.09 577.822 287.478 574.941 284.95C574.2 284.256 573.295 283.889 572.224 283.889L571.689 284.419ZM459.934 548.651C455.942 548.488 453.225 547.673 451.784 546.245C453.225 544.818 454.583 543.758 455.859 543.023C457.135 542.289 458.658 542.493 460.47 543.554C461.21 544.247 462.198 544.451 463.474 544.084C464.709 543.717 465.738 543.554 466.438 543.554C467.879 544.288 468.784 544.981 469.155 545.715C468.784 546.041 468.62 546.409 468.62 546.776C468.62 547.143 468.455 547.306 468.085 547.306C466.644 548.366 463.927 548.815 459.934 548.651ZM466.397 551.629C468.249 548.407 470.76 547.143 474.012 547.877C471.83 550.731 470.225 552.73 469.114 553.79C468.743 554.157 467.838 554.32 466.397 554.32V551.629ZM476.976 555.381C475.699 555.748 474.176 556.278 472.365 557.012V556.971C473.847 553.015 476.358 551.058 479.98 551.058C479.61 551.058 479.98 551.955 481.051 553.749C479.61 554.483 478.252 555.014 476.976 555.381ZM503.319 546.776C503.319 547.51 503.484 548.04 503.854 548.407L503.895 548.366L506.612 545.674C502.661 541.718 502.29 539.761 505.542 539.761C506.983 540.128 509.164 541.351 512.046 543.513V544.043C512.046 545.144 512.21 545.837 512.581 546.205C517.273 544.084 521.595 541.922 525.588 539.761C526.288 539.435 527.564 539.231 529.375 539.231C530.075 538.864 530.733 538.578 531.268 538.415C531.803 538.211 532.421 537.966 533.162 537.599C533.903 536.865 534.602 535.968 535.343 534.908C536.084 533.847 536.784 533.48 537.525 533.847C538.966 534.214 540.242 534.745 541.312 535.479C542.382 536.213 543.658 536.906 545.099 537.64C545.469 538.007 545.634 538.456 545.634 538.986C545.634 539.516 545.469 539.802 545.099 539.802C544.028 540.862 542.917 541.841 541.847 542.738C540.777 543.635 539.665 544.247 538.595 544.614C534.973 545.715 531.474 546.694 528.016 547.591C524.559 548.488 521.06 549.263 517.438 549.997C512.745 550.731 508.176 551.629 503.854 552.689C499.491 553.749 494.963 554.647 490.271 555.381C486.319 556.482 485.043 554.32 486.484 548.937C487.225 546.816 488.13 545.103 489.201 543.839C490.271 542.575 492.288 542.126 495.169 542.493C494.799 543.227 494.634 543.921 494.634 544.655C494.634 545.389 494.469 546.082 494.099 546.816C494.469 547.183 494.799 547.346 495.169 547.346L499.532 543.023L501.426 544.899C501.961 545.43 502.619 546.041 503.319 546.776ZM551.067 548.937C553.578 546.776 555.595 547.673 557.036 551.629C554.484 552.322 552.137 553.138 549.956 554.035C547.815 554.932 545.428 555.707 542.917 556.441C542.588 556.441 542.217 556.278 541.847 555.911C541.476 555.585 540.9 555.218 540.2 554.851C540.9 554.483 541.353 554.035 541.559 553.505C541.765 552.974 542.011 552.689 542.382 552.689C543.864 551.996 545.304 551.343 546.745 550.813C548.186 550.283 549.626 549.671 551.067 548.937ZM549.974 461.888C548.919 462.939 548.35 463.828 548.35 464.557C547.61 466.719 547.157 468.962 546.992 471.286C546.827 473.611 546.333 476.058 545.634 478.546C545.634 478.913 545.798 479.28 546.169 479.606L547.239 480.667C549.05 479.932 550.12 479.035 550.491 477.975C550.861 477.241 550.944 476.466 550.779 475.569C550.614 474.671 550.861 473.856 551.602 473.162C553.78 469.58 553.251 465.836 549.974 461.888ZM548.934 454.354C549.983 455.076 550.873 455.759 551.602 456.482C552.302 457.216 553.043 457.747 553.784 458.114C554.154 458.114 554.854 457.665 555.965 456.768C557.036 455.871 557.406 455.259 557.036 454.892C556.665 453.464 555.389 451.67 553.249 449.508C552.509 450.568 551.07 452.196 548.934 454.354ZM561.646 434.949C561.111 436.376 560.452 438.171 559.752 440.332L559.711 440.21C557.53 437.722 556.542 435.398 556.706 433.236C556.871 431.075 557.53 429.117 558.6 427.323C560.04 424.468 561.234 421.695 562.14 419.003C563.045 416.352 563.498 413.375 563.498 410.153C563.498 406.931 564.404 403.709 566.215 400.487C568.026 397.266 569.672 394.207 571.113 391.352C571.113 390.659 571.401 390.292 571.936 390.292C572.471 390.292 573.089 390.129 573.83 389.762C574.529 391.189 574.735 392.086 574.365 392.453C572.554 397.47 570.907 402.2 569.467 406.686C568.026 411.173 566.585 415.903 565.144 420.92C564.445 422.714 564.074 424.305 564.074 425.773C564.074 427.241 563.745 428.832 563.004 430.626C562.634 432.094 562.181 433.522 561.646 434.949ZM599.638 508.358C599.432 508.195 599.35 507.746 599.35 507.012L599.391 507.094C604.784 509.255 608.941 507.461 611.863 501.71C612.234 501.384 612.481 501.18 612.687 501.18C612.892 501.18 613.139 501.017 613.51 500.65C618.202 498.162 622.936 495.715 627.628 493.391C629.171 492.627 630.736 491.854 632.322 491.07C635.559 489.471 638.884 487.829 642.282 486.131C646.234 484.337 649.938 482.257 653.396 479.932C656.812 477.608 660.352 475.528 663.974 473.733C664.674 473.04 665.333 472.673 665.868 472.673C666.403 472.673 667.021 472.51 667.761 472.143C669.573 471.409 670.478 470.716 670.478 469.981C670.478 467.82 671.096 466.189 672.372 465.128C673.648 464.068 675.171 463.171 676.982 462.437C680.933 460.642 684.638 458.521 688.095 455.993C691.512 453.505 695.052 451.181 698.674 449.019C699.415 448.693 700.115 448.326 700.856 447.959C701.597 447.592 702.296 447.428 703.037 447.428C703.408 447.428 703.943 447.592 704.684 447.959C705.383 448.285 705.754 448.652 705.754 449.019C705.754 449.753 705.466 450.446 704.931 451.181C704.396 451.874 703.943 452.241 703.572 452.241C699.991 452.608 696.986 453.954 694.64 456.278C692.294 458.644 689.66 460.683 686.778 462.477L654.219 485.071C651.338 487.192 648.251 489.068 644.999 490.699C641.747 492.33 639.236 494.41 637.425 496.898C634.873 499.794 632.156 501.833 629.275 503.097C626.352 504.321 623.636 506.237 621.125 508.725C619.684 509.785 617.955 510.601 615.98 511.131C613.963 511.661 612.069 512.273 610.258 513.007C608.447 513.741 607.006 514.353 605.936 514.883C605.598 515.051 605.24 515.226 604.862 515.411C604.044 515.812 603.135 516.257 602.149 516.759C598.897 518.554 595.728 520.185 592.641 521.612C589.554 523.04 586.384 524.467 583.132 525.895C582.391 526.221 581.774 526.588 581.239 526.955C580.704 527.281 580.086 527.648 579.345 528.015C578.605 528.382 577.864 528.505 577.164 528.301C576.423 528.097 575.682 528.015 574.982 528.015V525.854C574.982 525.12 575.147 524.59 575.517 524.223C578.399 522.428 581.115 520.797 583.667 519.369C586.219 517.942 588.73 516.311 591.282 514.516C592.682 513.823 594.164 513.007 595.604 512.11C597.045 511.254 598.486 510.234 599.926 509.174C599.926 508.807 599.803 508.521 599.638 508.358ZM586.343 540.903C585.273 540.903 583.997 541.229 582.556 541.963V542.045C583.667 544.206 584.367 545.838 584.738 546.898C582.227 548.325 580.333 548.488 579.057 547.428C577.781 546.368 576.588 545.103 575.517 543.676C575.517 543.309 575.682 542.697 576.052 541.8C576.382 540.903 576.752 540.454 577.123 540.454C579.263 540.454 580.704 539.842 581.445 538.578C582.186 537.314 582.885 535.805 583.626 534.01C585.437 531.115 587.578 530.422 590.13 531.849H592.311C593.052 531.849 593.752 531.686 594.493 531.319C597.745 529.891 600.914 528.546 604.001 527.281C607.089 526.017 610.258 524.671 613.51 523.244C614.251 522.877 614.951 522.428 615.692 521.898C616.432 521.368 617.132 520.756 617.873 520.022C619.314 519.329 620.59 518.35 621.66 517.086C622.73 515.821 623.8 514.843 624.912 514.108C626.723 513.374 628.411 512.844 630.057 512.477C631.662 512.11 633.391 511.58 635.202 510.846C636.272 510.846 637.178 510.52 637.919 509.785C639.73 506.197 642.282 503.627 645.534 501.996C648.786 500.405 652.038 498.693 655.289 496.898L656.936 495.267C658.747 494.206 659.817 493.839 660.188 494.206C661.628 494.206 662.369 495.104 662.369 496.898C662.369 498.325 661.628 499.386 660.188 500.12C657.636 501.914 655.207 503.342 652.861 504.402C650.515 505.462 648.045 506.727 645.534 508.154C644.464 508.888 643.517 509.785 642.817 510.846C642.076 511.906 641.335 513.007 640.636 514.068C639.895 514.802 639.36 515.414 638.989 515.944C638.619 516.474 638.042 516.922 637.343 517.289C635.532 517.983 633.844 518.798 632.197 519.696C630.592 520.593 628.863 521.368 627.052 522.102L600.997 533.399C599.185 534.459 597.292 535.56 595.316 536.621C595.009 536.782 594.7 536.945 594.39 537.109C592.668 538.016 590.908 538.944 589.06 539.842C588.319 540.536 587.413 540.903 586.343 540.903ZM607.5 436.295C608.57 434.337 609.846 432.461 611.287 430.667L611.411 430.381C608.529 428.587 608.365 426.058 610.875 422.836C611.246 422.102 611.246 421.409 610.875 420.675C610.505 419.941 610.34 419.248 610.34 418.513V414.761C611.081 415.128 611.699 415.292 612.234 415.292C612.769 415.292 613.386 415.455 614.127 415.822L617.379 419.044C618.079 416.189 618.902 413.293 619.808 410.438C620.713 407.584 621.495 404.688 622.236 401.833C622.607 400.773 623.06 399.672 623.595 398.611C624.13 397.551 624.747 396.45 625.488 395.39C625.598 395.224 625.706 395.059 625.813 394.897C626.391 394.025 626.93 393.21 627.382 392.453C627.917 391.597 627.464 390.781 626.023 390.047C625.323 389.68 624.953 388.946 624.953 387.886C624.953 386.825 624.788 385.561 624.418 384.134C626.229 384.868 627.464 385.316 628.205 385.479C628.946 385.683 629.645 385.928 630.386 386.295C631.049 384.596 631.822 382.751 632.671 380.725L632.815 380.382C633.72 378.22 634.708 376.262 635.82 374.468C636.89 371.98 638.084 369.656 639.36 367.494C640.636 365.373 641.994 363.049 643.435 360.52L656.442 333.114C656.812 332.747 657.059 332.299 657.265 331.768C657.43 331.238 657.883 330.953 658.623 330.953C660.435 330.259 661.793 328.995 662.698 327.201C663.604 325.406 664.386 323.612 665.127 321.817C666.938 316.842 669.82 312.967 673.812 310.276C677.764 307.584 681.921 305.912 686.284 305.178C691.718 304.118 696.616 302.119 700.938 299.264C703.099 297.837 705.27 296.399 707.442 294.962C709.613 293.524 711.784 292.087 713.945 290.659C715.756 289.599 717.65 288.987 719.626 288.783C721.643 288.62 723.536 288.172 725.347 287.437C726.788 286.703 728.064 286.173 729.134 285.806C730.245 285.439 731.11 284.909 731.851 284.175C735.102 281.32 738.354 278.547 741.606 275.855C744.858 273.163 747.945 270.39 750.826 267.535C754.449 264.681 758.441 262.356 762.763 260.562C767.127 259.501 771.366 258.237 775.523 256.81C779.681 255.382 783.921 253.751 788.284 251.956H789.354L791.224 251.425C798.197 249.447 805.068 247.497 811.87 245.513C819.279 243.351 826.77 241.394 834.385 239.599C836.196 238.906 837.884 238.539 839.53 238.539H844.676C846.487 238.539 847.392 239.436 847.392 241.23C847.392 245.186 847.063 248.041 846.322 249.836C841.63 265.619 834.55 280.871 825.165 295.553C822.242 300.937 819.073 306.238 815.656 311.418C812.24 316.638 808.535 321.573 804.543 326.222C796.228 335.928 787.913 345.39 779.599 354.729C775.441 359.399 771.284 364.058 767.126 368.718C762.969 373.377 758.812 378.036 754.654 382.706C748.851 388.783 742.8 394.452 736.461 399.631C730.122 404.851 723.701 409.949 717.197 414.965C708.841 421.083 700.526 427.241 692.212 433.522C683.897 439.802 675.582 446.164 667.267 452.608C663.975 454.729 660.846 457.094 657.759 459.582C654.672 462.07 651.338 464.394 647.716 466.556C644.093 468.717 640.471 470.797 636.849 472.755C633.9 474.381 630.843 476.035 627.654 477.76C626.925 478.154 626.19 478.552 625.447 478.954C621.454 481.115 617.503 483.358 613.51 485.683C609.517 488.048 605.566 490.25 601.573 492.412C600.091 493.146 598.65 493.676 597.21 494.043C595.769 494.41 594.328 494.941 592.888 495.675C591.818 496.409 590.747 497.02 589.636 497.551C588.566 498.081 587.454 498.693 586.384 499.427C585.643 499.794 585.026 500.079 584.491 500.242C583.956 500.446 583.297 500.691 582.597 501.058C582.597 499.263 582.762 498.04 583.132 497.306C583.832 493.717 584.367 491.188 584.738 489.761C585.808 486.172 586.713 482.706 587.454 479.28C588.154 475.895 589.265 472.388 590.706 468.799L595.028 458.032C596.51 454.484 598.856 451.221 602.108 448.367C602.808 447.673 603.178 446.694 603.178 445.43C603.178 444.166 603.508 442.983 604.248 441.923C605.319 440.169 606.43 438.252 607.5 436.295ZM701.926 467.738V469.9H701.967C701.062 470.267 700.156 470.624 699.251 470.98C698.345 471.337 697.44 471.694 696.534 472.061C695.628 472.428 694.723 472.785 693.818 473.142C692.912 473.499 692.006 473.856 691.1 474.223V471.531C693.241 469.37 695.587 467.738 698.139 466.678C698.839 466.311 699.497 466.311 700.032 466.678C700.568 467.004 701.185 467.371 701.926 467.738ZM732.592 445.185C732.386 444.859 731.974 444.492 731.233 444.125C732.345 443.391 733.332 442.698 734.238 441.964C735.037 441.285 735.977 440.641 736.96 439.968L737.202 439.802L738.848 441.433C738.107 442.127 737.202 442.942 736.132 443.84C735.061 444.737 734.156 445.512 733.415 446.246C733.044 445.92 732.756 445.553 732.592 445.185ZM318.642 281.814C318.704 281.785 318.768 281.757 318.831 281.728C318.899 281.778 318.967 281.827 319.033 281.875L318.76 282.009L318.749 282.054L318.214 282.584C318.294 282.443 318.374 282.302 318.452 282.161L318.337 282.218L318.521 282.035C318.562 281.961 318.602 281.887 318.642 281.814ZM318.642 281.814C314.791 283.58 313.33 285.345 314.221 287.111C315.127 288.906 316.691 290.7 318.831 292.495C317.02 293.922 315.579 295.553 314.509 297.348C313.439 299.142 312.245 300.855 310.969 302.446C309.693 304.077 308.253 305.3 306.647 306.198C305.001 307.095 302.943 307.543 300.391 307.543C301.831 312.193 302.202 315.17 301.461 316.434C300.72 317.698 297.674 320.105 292.241 323.693C291.5 325.855 290.965 327.812 290.594 329.607C290.224 331.401 289.524 332.666 288.413 333.359C286.601 335.153 285.325 337.029 284.626 338.987C283.885 340.945 283.35 343.025 282.979 345.186C281.538 351.63 278.822 356.728 274.829 360.52C270.836 364.272 266.844 368.147 262.892 372.062L257.459 386.05C252.766 395.39 247.497 404.525 241.735 413.456C239.536 416.856 237.342 420.256 235.15 423.653C231.558 429.222 227.969 434.785 224.364 440.332C221.113 444.655 218.272 449.141 215.967 453.791C213.621 458.44 210.987 462.926 208.105 467.249C206.294 470.471 204.401 473.53 202.425 476.384C200.449 479.239 198.885 482.665 197.815 486.621C197.074 490.21 195.551 493.717 193.205 497.102L192.839 497.636C190.623 500.872 188.481 503.999 186.413 507.053C182.791 512.436 179.374 517.82 176.081 523.162C172.83 528.546 169.207 533.929 165.215 539.312C160.893 546.123 156.159 547.02 151.096 542.004C148.544 538.782 144.922 536.988 140.229 536.621C138.418 536.621 136.689 535.723 135.084 533.929C133.438 532.135 132.285 530.34 131.544 528.546C129.733 521.735 129.033 515.454 129.363 509.745C131.174 497.184 133.52 484.745 136.401 472.388C139.283 460.03 142.74 447.592 146.733 435.031C148.544 428.954 150.191 422.755 151.631 416.474C153.072 410.194 154.718 404.036 156.529 397.918C159.04 388.946 161.51 380.096 163.856 371.287C166.203 362.519 168.837 353.628 171.718 344.656C173.9 336.785 175.958 328.995 177.975 321.287C179.951 313.579 182.215 305.79 184.767 297.919C186.207 292.902 187.73 287.886 189.377 282.87C191.023 277.854 192.546 272.837 193.987 267.821L196.704 255.994C192.711 258.155 189.912 260.766 188.307 263.783C186.66 266.842 185.137 269.779 183.696 272.674C180.074 280.912 176.081 287.927 171.759 293.636C168.878 297.592 166.614 301.793 164.968 306.279C163.321 310.765 161.634 315.129 159.822 319.452C157.27 324.468 154.759 329.321 152.207 333.971C149.697 338.62 147.309 343.473 145.169 348.489C142.246 353.506 139.735 358.522 137.554 363.538C135.372 368.555 132.861 373.571 129.98 378.587C125.617 386.458 121.212 394.289 116.685 401.956C112.157 409.664 107.917 417.453 103.924 425.324C102.113 428.913 100.673 432.421 99.5612 435.805C98.491 439.231 97.0092 442.698 95.2392 446.287C94.169 448.448 93.0576 450.406 91.9874 452.2C90.9172 453.995 89.1061 455.626 86.554 457.053C82.9318 459.582 80.2151 463.171 78.404 467.82C76.5928 470.675 75.3168 473.815 74.6171 477.241C73.8761 480.667 72.9706 483.97 71.9003 487.192C70.4597 493.309 68.7309 499.1 66.7551 504.647C64.7793 510.193 61.0747 515.332 55.6414 519.981C54.5711 521.042 53.7479 522.306 53.2128 523.733C52.865 524.661 52.465 525.675 52.0355 526.764C51.8042 527.35 51.5643 527.958 51.3193 528.586L47.5324 536.131C47.162 537.192 46.5445 538.293 45.639 539.353C44.7334 540.413 43.9102 541.515 43.2104 542.575C42.4695 543.635 42.0167 544.736 41.8521 545.797C41.6874 546.857 42.3049 548.121 43.7455 549.549C40.1233 554.565 38.6826 560.479 39.3824 567.289C39.3824 570.144 39.3 573.121 39.0942 576.18C38.9296 579.239 40.823 581.645 44.7746 583.439C42.9635 583.439 41.1523 583.725 39.3412 584.255C37.5301 584.785 35.7189 584.867 33.9078 584.54C22.7117 582.746 14.0266 577.648 7.85225 569.206C1.71911 560.805 -0.83293 551.384 0.237282 540.984C1.67795 531.319 3.40676 521.735 5.38253 512.232C7.35831 502.73 10.3631 493.35 14.3559 484.011C18.3486 473.244 22.0532 462.518 25.4696 451.752C28.9272 440.985 32.7964 430.259 37.1184 419.492C41.4816 408.726 45.9683 398.081 50.7019 387.519C55.3944 376.956 60.0868 366.475 64.8205 356.075C72.4355 338.865 80.0093 321.858 87.6242 305.015C95.2392 288.172 103.019 271.124 110.963 253.955C116.026 243.188 121.377 232.544 126.975 221.981C132.573 211.418 138.089 200.733 143.522 190.007L168.466 138.376C176.781 121.166 185.096 103.955 193.452 86.7451C195.263 83.5233 197.156 80.5461 199.132 77.8952C201.108 75.2036 203.907 72.5935 207.529 70.1057C209.711 72.2672 212.057 73.7762 214.609 74.6734C217.12 75.5706 219.96 76.1824 223.006 76.5494C226.093 76.9165 229.057 77.1611 231.979 77.3651C234.861 77.5282 237.577 78.1807 240.13 79.2411C240.13 80.3014 239.594 81.9327 238.483 84.0942L250.42 86.2557C255.112 86.6228 258.57 88.2133 260.752 91.1089C262.933 93.9637 264.374 97.3894 265.074 101.305C265.444 104.526 266.144 107.422 267.255 109.91C268.325 112.438 270.342 114.559 273.224 116.353C277.216 118.515 279.645 121.655 280.551 125.774C281.456 129.893 281.003 134.298 279.192 138.947C277.381 144.33 275.117 149.795 272.401 155.342C269.684 160.888 267.955 166.353 267.255 171.737C266.514 177.487 264.909 182.748 262.357 187.601C259.805 192.454 258.2 197.715 257.459 203.466C256.718 209.216 255.112 214.844 252.56 220.391C250.05 225.937 247.868 231.606 246.057 237.315C243.505 243.759 241.364 250.203 239.553 256.687C237.742 263.131 235.766 269.411 233.585 275.488C231.774 280.137 229.88 284.705 227.904 289.191C225.929 293.677 223.994 298.245 222.224 302.894C219.343 310.072 216.42 316.964 213.539 323.612C210.616 330.259 208.105 337.152 205.924 344.33C203.043 353.669 199.955 362.804 196.704 371.736C193.452 380.708 190.2 389.843 186.948 399.142C186.578 399.876 186.207 400.406 185.878 400.773C185.508 401.14 185.343 401.67 185.343 402.404C184.602 406.727 183.82 410.928 182.873 415.047C181.968 419.166 180.239 423.367 177.728 427.69C175.917 430.912 174.723 434.5 174.188 438.456C173.653 442.412 172.83 446.327 171.759 450.283C171.018 453.505 169.948 456.646 168.508 459.704C167.067 462.763 165.791 465.903 164.721 469.125C163.98 471.98 163.074 474.672 162.004 477.2C160.934 479.729 160.934 482.42 162.004 485.275C164.186 485.642 165.791 485.194 166.902 483.929C167.972 482.665 168.878 481.156 169.619 479.362L179.374 462.151L208.147 417.005L253.178 347.103C255.689 343.881 257.5 340.822 258.611 337.967C260.422 335.48 262.316 333.481 264.292 332.054C266.267 330.626 269.066 329.892 272.689 329.892C271.948 328.832 271.413 327.853 271.042 326.915C270.889 326.544 270.707 326.096 270.495 325.57C270.193 324.827 269.83 323.929 269.396 322.878L282.403 312.111C280.962 308.155 281.292 304.566 283.473 301.344C285.655 298.123 288.166 294.534 291.088 290.578C295.081 285.194 298.868 279.648 302.49 273.898C306.112 268.147 309.899 262.438 313.892 256.687C314.592 255.627 315.497 254.526 316.609 253.465L319.325 250.774C321.136 248.286 323.112 245.839 325.294 243.514C327.475 241.19 328.916 238.58 329.657 235.725C331.468 230.709 335.09 227.12 340.524 224.958C345.587 223.164 348.838 220.758 350.279 217.699C351.72 214.64 352.09 210.643 351.349 205.586C353.16 205.586 354.683 204.852 355.959 203.425C357.235 201.997 358.594 200.57 360.034 199.102C361.475 197.674 363.039 196.41 364.645 195.35C366.25 194.289 368.514 194.086 371.436 194.82C370.695 196.614 370.078 198.042 369.543 199.143L368.185 201.834C366.744 205.056 364.727 208.033 362.216 210.725C359.705 213.417 358.758 216.72 359.499 220.676C359.499 221.736 358.758 223.001 357.318 224.428C355.877 225.855 354.601 227.283 353.531 228.71L348.097 236.785L355.136 239.477L346.451 250.244L344.269 241.638C343.899 241.638 343.652 241.72 343.446 241.924C343.281 242.087 342.993 242.209 342.623 242.209H341.512C340.441 244.004 339.618 245.798 339.083 247.593C338.548 249.387 337.56 251.182 336.078 252.976C334.267 255.831 332.374 258.359 330.398 260.521C328.422 262.682 326.487 265.17 324.717 268.066C323.277 270.227 322.165 272.552 321.466 275.04C320.8 277.311 319.869 279.549 318.642 281.814ZM318.337 282.218L318.255 282.258H318.296L318.337 282.218ZM319.033 281.875C320.365 282.833 321.285 283.268 321.795 283.074C322.33 282.911 323.688 281.361 325.87 278.506L319.033 281.875ZM24.1524 483.358C24.1524 488.007 22.9176 492.127 20.3655 495.715C18.1839 492.861 17.2784 490.862 17.6488 489.802C18.0193 488.742 20.1597 486.58 24.1524 483.358ZM24.9757 472.877C25.5108 472.306 27.2396 472.225 30.1209 472.592L30.1621 472.632C28.7214 473.693 27.5277 474.672 26.6221 475.569C25.7166 476.466 24.5229 477.241 23.0822 477.975C23.8231 475.12 24.4405 473.407 24.9757 472.877ZM28.4744 460.765C28.8449 459.704 30.656 457.706 33.9078 454.851C32.8376 457.706 32.0967 460.153 31.7262 462.11C31.3969 464.109 30.8618 466.148 30.1209 468.309C28.6391 464.353 28.104 461.825 28.4744 460.765ZM36.6245 490.087C36.254 491.352 35.5543 492.698 34.4429 494.125H31.2323C31.932 492.698 32.3025 491.474 32.3025 490.373C32.3025 489.272 32.4671 487.844 32.8376 486.05C35.7189 487.477 36.995 488.823 36.6245 490.087ZM52.3896 450.569L45.886 460.765C45.8875 455.774 46.1755 452.932 46.7092 452.2C47.2443 451.466 49.1378 450.936 52.3896 450.569ZM52.9247 406.442V408.032L48.6026 409.664V407.502L52.9247 406.442ZM59.9173 431.163L57.7818 429.566C57.4113 430.626 56.9585 431.727 56.4234 432.788L55.0651 435.479C55.0651 435.846 55.4355 436.009 56.1353 436.009L59.9173 431.163ZM155.49 453.823C154.426 457.026 153.854 459.013 153.854 459.704C153.854 460.071 154.224 460.968 154.924 462.396C155.295 461.662 155.83 461.132 156.571 460.765C157.27 460.398 157.641 459.867 157.641 459.133C157.641 458.399 157.476 457.787 157.106 457.257C156.74 456.734 156.215 455.577 155.49 453.823ZM326.369 540.928C323.842 542.713 322.701 544.335 322.865 545.756C323.03 547.183 323.688 548.285 324.759 548.978H326.94C327.311 547.917 327.393 546.735 327.187 545.471C327.023 544.212 326.737 542.711 326.369 540.928ZM350.267 462.396C349.533 462.395 349.085 462.313 348.921 462.11C348.756 461.947 348.262 461.825 347.562 461.825C345.01 465.047 342.582 469.614 340.236 475.528C337.889 481.441 335.79 487.885 333.979 494.9C332.168 501.874 330.727 509.051 329.657 516.392C328.546 523.733 328.381 530.299 329.122 536.009L350.267 462.396ZM353.531 430.381C354.971 425.202 356.947 419.737 359.499 413.987L365.468 416.148C362.916 421.491 360.652 426.711 358.676 431.727C356.7 436.743 354.642 441.76 352.461 446.776C351.72 441.066 352.09 435.602 353.531 430.381ZM369.831 386.581C370.901 386.581 371.807 386.744 372.548 387.111H372.507C371.066 390.333 369.79 394.289 368.72 398.938C367.279 396.083 367.114 393.758 368.185 391.964C369.296 390.169 369.831 388.375 369.831 386.581ZM380.41 183.89C381.686 181.728 383.209 178.71 385.02 174.754H384.979C383.908 174.754 382.797 174.673 381.727 174.469C380.615 174.306 379.916 174.551 379.545 175.285C377.364 177.446 375.388 179.689 373.577 182.014C371.766 184.338 369.79 186.785 367.608 189.273C370.16 189.64 372.054 189.803 373.33 189.803C374.606 189.803 375.758 189.355 376.87 188.458C377.981 187.56 379.134 186.051 380.41 183.89ZM381.777 375.266L383.414 372.062C381.974 371.695 379.792 370.798 376.911 369.37C376.54 369.737 376.376 370.267 376.376 371.002C376.376 371.369 376.211 371.736 375.841 372.062L381.777 375.266ZM383.972 416.695L386.131 418.31C386.872 417.576 387.49 416.678 388.025 415.618C388.56 414.558 389.177 413.66 389.918 412.926L388.807 411.866C388.436 411.499 388.066 411.336 387.736 411.336C386.996 412.07 386.378 412.967 385.843 414.027C385.314 415.076 384.664 415.966 383.972 416.695ZM385.047 352.133C386.846 350.336 388.36 347.409 389.63 343.31C390.906 339.191 391.359 335.153 390.988 331.197C390.988 332.992 390.535 334.786 389.63 336.581C388.724 338.375 387.736 340.088 386.666 341.679C385.596 343.31 384.773 344.901 384.238 346.532C383.705 348.156 383.948 350.023 385.047 352.133ZM406.177 143.556L396.957 155.913L394.528 158.319C394.215 158.629 393.911 158.925 393.62 159.21C393.068 159.748 392.557 160.245 392.1 160.725C391.359 161.459 390.618 162.438 389.918 163.702C389.355 164.664 388.696 165.766 387.943 167.028C387.705 167.426 387.458 167.84 387.201 168.27C395.516 166.109 398.768 162.03 396.957 155.913C401.32 156.973 404.901 155.383 407.824 151.06L414.862 139.233C412.681 138.906 410.993 139.151 409.717 140.048C408.441 140.946 407.247 142.128 406.177 143.556ZM389.458 404.321C390.124 404.327 390.672 404.41 391.029 404.607C391.4 404.77 391.935 404.892 392.676 404.892C394.117 403.832 395.31 402.404 396.216 400.61C397.121 398.815 396.298 396.491 393.787 393.636C393.046 396.165 392.347 398.122 391.606 399.55C390.876 400.955 390.186 402.559 389.458 404.321ZM399.673 372.062C402.184 366.312 405.436 360.928 409.429 355.912V355.953C409.799 362.07 408.523 367.617 405.642 372.633C402.761 377.649 400.579 382.829 399.138 388.212C398.439 388.905 397.615 389.272 396.71 389.272C395.804 389.272 394.611 389.599 393.17 390.333C394.981 383.889 397.163 377.812 399.673 372.062ZM400.832 308.054C402.623 307.332 404.13 306.93 405.395 306.728C406.671 306.565 407.659 306.116 408.4 305.382C409.47 303.587 410.211 301.63 410.581 299.468C410.952 297.307 410.046 295.349 407.865 293.555C405.313 295.349 403.79 297.429 403.255 299.754C402.721 302.074 401.899 304.841 400.832 308.054ZM415.932 273.653L412.146 287.111V287.07C411.446 282.054 411.24 278.995 411.61 277.935C411.94 276.875 413.38 275.447 415.932 273.653ZM415.974 343.555L413.257 342.494L416.509 336.581L418.69 337.641C418.32 338.742 417.867 339.721 417.332 340.618C416.797 341.516 416.344 342.494 415.974 343.555ZM418.114 264.803C418.484 263.906 420.296 262.397 423.547 260.235L418.649 271.532C417.908 267.943 417.744 265.7 418.114 264.803ZM419.805 133.811C419.79 133.837 419.775 133.864 419.761 133.89V133.849C419.775 133.837 419.79 133.824 419.805 133.811ZM428.158 122.593C424.402 126.881 421.617 130.607 419.805 133.811C422.305 131.67 425.089 130.174 428.158 129.282C431.245 128.384 433.838 126.304 436.02 123.083C438.16 119.861 440.794 116.924 443.881 114.233C446.927 111.541 449.932 108.768 452.814 105.913L469.114 90.8642C465.121 92.6586 460.717 95.2687 455.818 98.6537C450.92 102.079 446.063 105.831 441.165 109.951C436.308 114.07 431.944 118.27 428.158 122.593ZM440.136 218.025C440.671 217.128 442.358 215.456 445.281 212.927L445.322 212.886C444.211 214.681 443.223 216.475 442.317 218.27C441.412 220.064 440.218 221.859 438.777 223.653C439.148 220.798 439.601 218.922 440.136 218.025Z" fill="#F7F3EA" fill-opacity="0.015"/>
</svg>
