<?xml version="1.0" encoding="UTF-8"?><svg id="Layer_2" xmlns="http://www.w3.org/2000/svg" viewBox="0 0 219.62 164.53"><defs><style>.cls-1{fill:#fff;stroke-width:0px;}</style></defs><g id="Layer_3"><path class="cls-1" d="M77.45,69.08c-.97.44-1.34.88-1.12,1.32.22.44.6.88,1.12,1.32-.44.35-.79.75-1.05,1.19-.26.44-.55.86-.86,1.25-.31.4-.66.7-1.05.92-.4.22-.9.33-1.52.33.35,1.14.44,1.87.26,2.18-.18.31-.92.9-2.24,1.78-.18.53-.31,1.01-.4,1.45-.09.44-.26.75-.53.92-.44.44-.75.9-.92,1.38-.18.48-.31.99-.4,1.52-.35,1.58-1.01,2.83-1.98,3.76-.97.92-1.94,1.87-2.9,2.83l-1.32,3.43c-1.14,2.29-2.42,4.53-3.82,6.72-1.41,2.2-2.81,4.4-4.22,6.59-.79,1.06-1.48,2.16-2.04,3.3-.57,1.14-1.21,2.24-1.91,3.3-.44.79-.9,1.54-1.38,2.24-.48.7-.86,1.54-1.12,2.51-.18.88-.55,1.74-1.12,2.57-.57.84-1.12,1.65-1.65,2.44-.88,1.32-1.71,2.64-2.51,3.95-.79,1.32-1.67,2.64-2.64,3.96-1.05,1.67-2.2,1.89-3.43.66-.62-.79-1.5-1.23-2.64-1.32-.44,0-.86-.22-1.25-.66-.4-.44-.68-.88-.86-1.32-.44-1.67-.61-3.21-.53-4.61.44-3.08,1.01-6.13,1.71-9.16s1.54-6.08,2.51-9.16c.44-1.49.84-3.01,1.19-4.55.35-1.54.75-3.05,1.19-4.55.61-2.2,1.21-4.37,1.78-6.53.57-2.15,1.21-4.33,1.91-6.53.53-1.93,1.03-3.84,1.52-5.73.48-1.89,1.03-3.8,1.65-5.73.35-1.23.72-2.46,1.12-3.69.4-1.23.77-2.46,1.12-3.69l.66-2.9c-.97.53-1.65,1.17-2.04,1.91-.4.75-.77,1.47-1.12,2.18-.88,2.02-1.85,3.74-2.9,5.14-.7.97-1.25,2-1.65,3.1-.4,1.1-.81,2.17-1.25,3.23-.62,1.23-1.23,2.42-1.85,3.56-.61,1.14-1.19,2.33-1.71,3.56-.71,1.23-1.32,2.46-1.85,3.69-.53,1.23-1.14,2.46-1.84,3.69-1.06,1.93-2.13,3.85-3.23,5.73-1.1,1.89-2.13,3.8-3.1,5.73-.44.88-.79,1.74-1.06,2.57-.26.84-.62,1.69-1.05,2.57-.26.53-.53,1.01-.79,1.45-.26.44-.7.84-1.32,1.19-.88.62-1.54,1.5-1.98,2.64-.44.7-.75,1.47-.92,2.31-.18.84-.4,1.65-.66,2.44-.35,1.5-.77,2.92-1.25,4.28-.48,1.36-1.38,2.62-2.7,3.76-.26.26-.46.57-.59.92-.13.35-.29.75-.46,1.19l-.92,1.85c-.09.26-.24.53-.46.79-.22.26-.42.53-.59.79-.18.26-.29.53-.33.79-.04.26.11.57.46.92-.88,1.23-1.23,2.68-1.06,4.35,0,.7-.02,1.43-.07,2.18-.04.75.42,1.34,1.38,1.78-.44,0-.88.07-1.32.2s-.88.15-1.32.07c-2.72-.44-4.83-1.69-6.33-3.76-1.49-2.06-2.11-4.37-1.85-6.92.35-2.37.77-4.72,1.25-7.05.48-2.33,1.21-4.63,2.18-6.92.97-2.64,1.87-5.27,2.7-7.91.84-2.64,1.78-5.27,2.83-7.91,1.06-2.64,2.15-5.25,3.3-7.84,1.14-2.59,2.28-5.16,3.43-7.71,1.85-4.22,3.69-8.39,5.54-12.52,1.85-4.13,3.74-8.31,5.67-12.52,1.23-2.64,2.53-5.25,3.89-7.84,1.36-2.59,2.7-5.21,4.02-7.84,2.02-4.22,4.04-8.44,6.06-12.66,2.02-4.22,4.04-8.44,6.07-12.66.44-.79.9-1.52,1.38-2.17.48-.66,1.16-1.3,2.04-1.91.53.53,1.1.9,1.72,1.12.61.22,1.3.37,2.04.46.75.09,1.47.15,2.18.2.7.04,1.36.2,1.98.46,0,.26-.13.66-.4,1.19l2.9.53c1.14.09,1.98.48,2.51,1.19.53.7.88,1.54,1.05,2.5.09.79.26,1.5.53,2.11.26.62.75,1.14,1.45,1.58.97.53,1.56,1.3,1.78,2.31.22,1.01.11,2.09-.33,3.23-.44,1.32-.99,2.66-1.65,4.02-.66,1.36-1.08,2.7-1.25,4.02-.18,1.41-.57,2.7-1.19,3.89-.62,1.19-1.01,2.48-1.19,3.89-.18,1.41-.57,2.79-1.19,4.15-.61,1.36-1.14,2.75-1.58,4.15-.62,1.58-1.14,3.16-1.58,4.75-.44,1.58-.92,3.12-1.45,4.61-.44,1.14-.9,2.26-1.38,3.36-.48,1.1-.95,2.22-1.38,3.36-.7,1.76-1.41,3.45-2.11,5.08-.71,1.63-1.32,3.32-1.85,5.08-.7,2.29-1.45,4.53-2.24,6.72-.79,2.2-1.58,4.44-2.37,6.72-.09.18-.18.31-.26.4-.09.09-.13.22-.13.4-.18,1.06-.37,2.09-.6,3.1-.22,1.01-.64,2.04-1.25,3.1-.44.79-.73,1.67-.86,2.64-.13.97-.33,1.93-.59,2.9-.18.79-.44,1.56-.79,2.31-.35.75-.66,1.52-.92,2.31-.18.7-.4,1.36-.66,1.98-.26.62-.26,1.28,0,1.98.53.09.92-.02,1.19-.33.26-.31.48-.68.66-1.12l2.37-4.22,6.99-11.07,10.94-17.14c.61-.79,1.05-1.54,1.32-2.24.44-.61.9-1.1,1.38-1.45.48-.35,1.16-.53,2.04-.53-.18-.26-.31-.5-.4-.73-.09-.22-.22-.55-.4-.99l3.16-2.64c-.35-.97-.27-1.85.26-2.64s1.14-1.67,1.85-2.64c.97-1.32,1.89-2.68,2.77-4.09.88-1.41,1.8-2.81,2.77-4.22.17-.26.39-.53.66-.79.26-.26.48-.48.66-.66.44-.61.92-1.21,1.45-1.78.53-.57.88-1.21,1.06-1.91.44-1.23,1.32-2.11,2.64-2.64,1.23-.44,2.02-1.03,2.37-1.78.35-.75.44-1.73.26-2.97.44,0,.81-.18,1.12-.53.31-.35.64-.7.99-1.06.35-.35.73-.66,1.12-.92s.94-.31,1.65-.13c-.18.44-.33.79-.46,1.06-.13.26-.24.48-.33.66-.35.79-.84,1.52-1.45,2.18s-.84,1.47-.66,2.44c0,.26-.18.57-.53.92-.35.35-.66.7-.92,1.05l-1.32,1.98,1.71.66-2.11,2.64-.53-2.11c-.09,0-.15.02-.2.07-.04.04-.11.07-.2.07h-.27c-.26.44-.46.88-.59,1.32-.13.44-.37.88-.73,1.32-.44.7-.9,1.32-1.38,1.85-.48.53-.95,1.14-1.38,1.85-.35.53-.62,1.1-.79,1.71-.18.62-.44,1.23-.79,1.85l.13-.13ZM4.94,121.55c.62-.88.92-1.89.92-3.03-.97.79-1.49,1.32-1.58,1.58-.09.26.13.75.66,1.45ZM7.31,115.88c-.7-.09-1.12-.07-1.25.07-.13.13-.28.55-.46,1.25.35-.18.64-.37.86-.59.22-.22.51-.46.86-.72ZM8.23,111.53c-.79.7-1.23,1.19-1.32,1.45-.09.26.04.88.4,1.85.18-.53.31-1.03.39-1.52.09-.48.27-1.08.53-1.78ZM7.57,121.16h.79c.27-.35.44-.68.53-.99.09-.31-.22-.64-.92-.99-.09.44-.13.79-.13,1.06s-.09.57-.26.92ZM11.14,112.98l1.58-2.5c-.79.09-1.25.22-1.38.4-.13.18-.2.88-.2,2.11ZM12.85,100.06v-.4l-1.05.26v.53l1.05-.4ZM14.56,105.73l-.53-.4c-.09.26-.2.53-.33.79-.13.26-.24.48-.33.66,0,.09.09.13.26.13l.92-1.19ZM37.77,111.27c-.26.79-.4,1.28-.4,1.45,0,.09.09.31.26.66.09-.18.22-.31.4-.4.17-.09.26-.22.26-.4s-.04-.33-.13-.46c-.09-.13-.22-.42-.4-.86ZM94.06,124.58l.53,3.96c0,.18.02.4.07.66.04.26-.02.48-.2.66-.79.79-1.23,1.67-1.32,2.64-.09.97-.31,1.93-.66,2.9-.44,1.32-.84,2.66-1.19,4.02-.35,1.36-.61,2.75-.79,4.15,0,.53-.09,1.06-.26,1.58-.18.53-.35,1.06-.53,1.58-.18.61-.42,1.23-.73,1.85-.31.61-.42,1.19-.33,1.71.09,1.85-.2,3.63-.86,5.34s-1.21,3.36-1.65,4.94c-.44.53-.94.75-1.52.66-.57-.09-1.03.22-1.38.92-.18.44-.4.83-.66,1.19-.27.35-.57.75-.92,1.19-4.57-1.06-7.25-3.91-8.04-8.57-.26-2.11-.37-4.24-.33-6.39.04-2.16.2-4.33.46-6.53.97-7.73,2.15-15.29,3.56-22.68.44-2.29.99-4.59,1.65-6.92.66-2.33,1.38-4.63,2.17-6.92,1.67-5.36,3.52-10.76,5.54-16.22,2.64-7.47,5.54-14.98,8.7-22.54.97-2.37,1.98-4.72,3.03-7.05,1.05-2.33,2.11-4.68,3.16-7.05.17-.44.33-.88.46-1.32.13-.44.28-.88.46-1.32,1.05-2.28,2.11-4.5,3.16-6.66,1.05-2.15,2.02-4.37,2.9-6.66.88-2.28,1.87-4.46,2.97-6.52,1.1-2.06,2-4.24,2.7-6.53.7-2.29,1.58-4.48,2.64-6.59,1.06-2.11,2.07-4.26,3.03-6.46.88-1.85,1.49-3.6,1.85-5.27.18-.97.57-1.76,1.19-2.37s1.32-.83,2.11-.66c1.49.35,2.97.57,4.42.66,1.45.09,2.75.7,3.89,1.85.44.53,1.03.9,1.78,1.12.75.22,1.43.51,2.04.86.53.26.97.53,1.32.79.35.26.53.75.53,1.45,0,.53.26.97.79,1.32.7.7,1.21,1.5,1.52,2.37.31.88.51,1.85.6,2.9.09,1.23-.13,2.46-.66,3.69-1.5,3.96-3.52,7.56-6.06,10.81-.09.18-.18.31-.26.4-.09.09-.13.22-.13.4-.44,1.93-1.3,3.71-2.57,5.34-1.28,1.63-2.26,3.41-2.97,5.34-.62,1.5-1.23,3.03-1.85,4.61-.62,1.58-1.32,3.12-2.11,4.61-.35.53-.64,1.01-.86,1.45-.22.44-.6.88-1.12,1.32-.71.44-1.14,1.01-1.32,1.71l-4.22,8.44c-.35.7-.75,1.36-1.19,1.98-.44.62-.84,1.28-1.19,1.98-.18.18-.26.4-.26.66s-.05.48-.13.66c-.35.79-.66,1.6-.92,2.44-.26.84-.75,1.6-1.45,2.31-.44.44-.77,1.03-.99,1.78-.22.75-.46,1.47-.73,2.18.09.18.44.48,1.06.92-.35.44-.73.79-1.12,1.06s-.42.75-.07,1.45c.17.26.2.62.07,1.06-.13.44-.29.84-.46,1.19-.61.97-1.19,1.87-1.71,2.7-.53.84-.88,1.78-1.05,2.83-.09.44-.37.81-.86,1.12-.48.31-.95.68-1.38,1.12.35.79.46,1.34.33,1.65-.13.31-.72.99-1.78,2.04-.09,1.14-.09,2.26,0,3.36.09,1.1-.22,2.22-.92,3.36-.35.44-.6.95-.73,1.52-.13.57-.26,1.12-.4,1.65-.13.53-.35,1.03-.66,1.52-.31.48-.81.86-1.52,1.12.44,1.41.42,2.75-.07,4.02-.48,1.28-.95,2.53-1.39,3.76-.18.35-.51.66-.99.92s-.94.57-1.38.92c.17.18.4.37.66.59.26.22.44.46.53.72.18.18.2.44.07.79-.13.35-.24.7-.33,1.06h-2.11c.17.7.33,1.34.46,1.91.13.57-.24,1.08-1.12,1.52ZM77.31,69.21l1.85-.92c-.53.7-.86,1.08-.99,1.12-.13.05-.37-.07-.72-.33l-.13.13ZM79.29,132.63c-.62.44-.9.84-.86,1.19.04.35.2.62.46.79h.53c.09-.26.11-.55.06-.86-.04-.31-.11-.68-.2-1.12ZM85.09,113.38c-.18,0-.29-.02-.33-.07-.04-.04-.16-.07-.33-.07-.62.79-1.21,1.91-1.78,3.36-.57,1.45-1.08,3.03-1.52,4.75-.44,1.71-.79,3.47-1.05,5.27-.27,1.8-.31,3.41-.13,4.81l5.14-18.06ZM87.33,101.51c-.62,1.41-1.1,2.75-1.45,4.02-.35,1.28-.44,2.62-.26,4.02.53-1.23,1.03-2.46,1.51-3.69.48-1.23,1.03-2.51,1.65-3.82l-1.45-.53ZM90.5,94.92c-.18-.09-.4-.13-.66-.13,0,.44-.13.88-.4,1.32-.26.44-.22,1.01.13,1.71.26-1.14.57-2.11.92-2.9ZM93.53,42.85c-.44.97-.81,1.71-1.12,2.24-.31.53-.59.9-.86,1.12-.27.22-.55.33-.86.33s-.77-.04-1.39-.13c.53-.61,1.01-1.21,1.45-1.78.44-.57.92-1.12,1.45-1.65.09-.18.26-.24.53-.2.26.05.53.07.79.07ZM92.74,92.02l.4-.79c-.35-.09-.88-.31-1.58-.66-.09.09-.13.22-.13.4,0,.09-.04.18-.13.26l1.45.79ZM93.27,102.17l.53.4c.18-.18.33-.4.46-.66s.28-.48.46-.66l-.27-.26c-.09-.09-.18-.13-.26-.13-.18.18-.33.4-.46.66-.13.26-.29.48-.46.66ZM93.53,86.35c.44-.44.81-1.16,1.12-2.17.31-1.01.42-2,.33-2.97,0,.44-.11.88-.33,1.32-.22.44-.46.86-.72,1.25-.26.4-.46.79-.59,1.19-.13.4-.07.86.2,1.38ZM96.43,38.23l2.24-3.03c.26-.35.55-.64.86-.86.31-.22.72-.28,1.25-.2l-1.71,2.9c-.71,1.06-1.58,1.45-2.64,1.19.44,1.5-.35,2.5-2.37,3.03.26-.44.48-.81.66-1.12.17-.31.35-.55.53-.73.17-.18.37-.37.59-.59.22-.22.42-.42.59-.59ZM94.59,99.14c.17,0,.31.02.4.07.09.04.22.07.4.07.35-.26.64-.61.86-1.05.22-.44.02-1.01-.59-1.71-.18.62-.35,1.1-.53,1.45-.18.35-.35.75-.53,1.19ZM99.46,87.27c-.97,1.23-1.76,2.55-2.37,3.96-.61,1.41-1.14,2.9-1.58,4.48.35-.18.64-.26.86-.26s.42-.09.59-.26c.35-1.32.88-2.59,1.58-3.82.7-1.23,1.01-2.59.92-4.09ZM97.36,75.54c.44-.18.81-.28,1.12-.33.31-.04.55-.15.73-.33.26-.44.44-.92.53-1.45.09-.53-.13-1.01-.66-1.45-.62.44-.99.95-1.12,1.52-.13.57-.33,1.25-.59,2.04ZM100.12,70.4l.92-3.3c-.62.44-.97.79-1.05,1.05-.09.26-.04,1.01.13,2.24ZM100.39,83.98l.66.26c.09-.26.2-.5.33-.72.13-.22.24-.46.33-.73l-.53-.26-.79,1.45ZM102.89,63.81c-.79.53-1.23.9-1.32,1.12-.09.22-.05.77.13,1.65l1.19-2.77ZM101.97,32.83c.44-.79,1.12-1.71,2.04-2.77.92-1.06,1.98-2.09,3.16-3.1,1.19-1.01,2.37-1.93,3.56-2.77,1.19-.83,2.26-1.47,3.23-1.91l-3.96,3.69c-.7.7-1.43,1.38-2.17,2.04-.75.66-1.39,1.38-1.91,2.17-.53.79-1.16,1.3-1.91,1.52-.75.22-1.43.59-2.04,1.12ZM108.17,52.21c-.71.62-1.12,1.03-1.25,1.25-.13.22-.24.68-.33,1.38.35-.44.64-.88.86-1.32.22-.44.46-.88.73-1.32Z"/><path class="cls-1" d="M139.67,71.06c-.18-.35-.44-.79-.79-1.32l.13-.13c.26,0,.48.09.66.26.7.62,1.47.77,2.31.46.83-.31,1.6-.46,2.31-.46.18,0,.33-.13.46-.4.13-.26.24-.48.33-.66.7-1.58,1.39-3.21,2.04-4.88.66-1.67,1.34-3.34,2.04-5.01.97-2.11,1.87-4.24,2.7-6.39.84-2.15,1.74-4.33,2.7-6.52.53-1.23,1.03-1.98,1.52-2.24.48-.26,1.47-.35,2.97-.26.7.09,1.39.13,2.04.13s1.34.04,2.04.13c.7.18,1.38.31,2.04.4.66.09,1.21.48,1.65,1.19.18.18.37.31.6.4.22.09.46.22.72.4,1.23.53,2.46,1.14,3.69,1.85.26.18.48.37.66.59.18.22.35.46.53.72.44.62.81.92,1.12.92s.73-.31,1.25-.92c.09-.18.17-.28.26-.33.09-.04.22-.15.4-.33,1.49-1.67,3.01-3.27,4.55-4.81,1.54-1.54,3.01-3.18,4.42-4.94,1.76-2.28,3.4-4.59,4.94-6.92,1.54-2.33,3.05-4.68,4.55-7.05.7-1.14,1.36-2.28,1.98-3.43.61-1.14,1.19-2.33,1.71-3.56.35-.7.61-1.45.79-2.24.17-.79.17-1.58,0-2.37-.18-.09-.13-.26.13-.53.7-.61,1.07-1.32,1.12-2.11s.11-1.58.2-2.37c.09-.7.09-1.45,0-2.24,0-.79-.4-1.01-1.19-.66-1.32.7-2.62,1.34-3.89,1.91-1.28.57-2.57,1.12-3.89,1.65-.44.26-.9.48-1.39.66-.48.18-.81.57-.99,1.19-.09.18-.28.26-.59.26s-.6.04-.86.13c-.18.09-.4.13-.66.13s-.4.09-.4.26c-.44.79-.99,1.32-1.65,1.58-.66.26-1.34.57-2.04.92-.44.26-.86.46-1.25.59-.4.13-.81.33-1.25.59-.44.18-.79.46-1.05.86-.26.4-.62.73-1.06.99-.88.7-1.74,1.34-2.57,1.91-.84.57-1.69,1.21-2.57,1.91-1.32,1.06-2.64,2.13-3.95,3.23-1.32,1.1-2.64,2.13-3.95,3.1-1.32,1.06-2.57,2.18-3.76,3.36-1.19,1.19-2.39,2.26-3.62,3.23-1.14.88-2.15,1.82-3.03,2.83-.88,1.01-1.76,2-2.64,2.97-1.58,1.76-3.12,3.52-4.61,5.27-1.49,1.76-2.99,3.52-4.48,5.27l-.4.4c-.35.44-.66.92-.92,1.45-.26.53-.57.84-.92.92-.79.09-1.56.05-2.31-.13-.75-.18-1.47-.35-2.18-.53-.26-.09-.44-.35-.53-.79-.09-.44-.18-.83-.27-1.19-.18-.53-.35-1.27-.53-2.24.97-.35,1.67-.97,2.11-1.85.44-.88.97-1.76,1.58-2.64.26-.44.57-.79.92-1.06.35-.26.7-.61,1.05-1.06,1.49-1.58,2.95-3.18,4.35-4.81,1.4-1.63,2.9-3.18,4.48-4.68,1.76-1.67,3.51-3.27,5.27-4.81,1.76-1.54,3.56-3.1,5.41-4.68.88-.7,1.73-1.43,2.57-2.17.83-.75,1.73-1.47,2.7-2.18,2.02-1.49,4.04-2.92,6.07-4.28,2.02-1.36,4.04-2.7,6.06-4.02,1.32-.88,2.66-1.65,4.02-2.31,1.36-.66,2.74-1.34,4.15-2.04,2.11-.97,4.24-1.89,6.39-2.77,2.15-.88,4.37-1.45,6.66-1.71.26-.09.53-.24.79-.46.26-.22.53-.42.79-.59.44.18.94.33,1.52.46.57.13,1.12.29,1.65.46.79.35,1.58.7,2.37,1.05.79.35,1.54.79,2.24,1.32.44.35.92.75,1.45,1.19.53.44.61,1.14.27,2.11-.09.09-.09.18,0,.26.09.09.13.18.13.26.88,1.85,1.72,3.47,2.51,4.88.61,1.06,1.01,2.16,1.19,3.3.17,1.14.17,2.33,0,3.56-.09,1.23-.16,2.42-.2,3.56-.04,1.14-.2,2.29-.46,3.43-.44,2.46-1.36,4.66-2.77,6.59-.35.35-.62.53-.79.53-.35,1.5-.75,2.99-1.19,4.48,0,.18-.06.31-.2.4-.13.09-.29.22-.46.4-.26.44-.53.84-.79,1.19-.26.35-.53.7-.79,1.06v.26c-.7.88-1.36,1.71-1.98,2.51-.62.79-1.28,1.63-1.98,2.51-.26.35-.51.7-.72,1.06-.22.35-.46.7-.73,1.05v.13c-.97.79-1.65,1.78-2.04,2.97-.4,1.19-1.21,2.13-2.44,2.83-.18.09-.33.26-.46.53-.13.26-.33.57-.59.92.7-.09,1.32-.15,1.84-.2.53-.04,1.05-.07,1.58-.07.97-.09,1.98-.15,3.03-.2,1.05-.04,2.06-.15,3.03-.33.17,0,.37-.13.59-.4.22-.26.51-.57.86-.92.17.18.42.38.72.59.31.22.59.42.86.59.27.18.51.35.73.53.22.18.46.31.72.4.61.18,1.19.38,1.71.59.53.22.88.68,1.06,1.38,0,.18.11.31.33.4.22.09.42.22.59.4.44.35.9.68,1.39.99.48.31.94.68,1.39,1.12.53.53,1.03,1.08,1.51,1.65.48.57.94,1.17,1.38,1.78.18.18.27.38.27.59s.04.46.13.73v.4c.61.7.83,1.5.66,2.37-.18.88-.22,1.76-.13,2.64,0,.44-.07.86-.2,1.25-.13.4-.24.81-.33,1.25-.18.53-.31,1.08-.4,1.65-.09.57-.22,1.12-.4,1.65-.35,2.02-1.41,4.04-3.16,6.06v.13c.09.7-.07,1.28-.46,1.71-.4.44-.72.92-.99,1.45-.44.79-.84,1.58-1.19,2.37-.35.79-.92,1.45-1.71,1.98-.44.26-.75.75-.92,1.45-.35.88-.88,1.56-1.58,2.04-.7.48-1.28,1.21-1.72,2.18-.26.88-.7,1.69-1.32,2.44-.61.75-1.23,1.47-1.85,2.17-.97,1.06-1.98,2.09-3.03,3.1-1.05,1.01-2.11,2-3.16,2.97-1.14,1.14-2.26,2.26-3.36,3.36-1.1,1.1-2.27,2.17-3.49,3.23-.53.53-1.1,1.01-1.72,1.45-.62.44-1.23.88-1.85,1.32-.18.18-.31.33-.4.46s-.22.29-.4.46l-.99.99c-.31.31-.68.59-1.12.86-1.41.97-2.68,1.8-3.82,2.51-.44.35-.9.64-1.39.86-.48.22-.99.51-1.52.86-.18,0-.35.09-.53.26-.35.44-.7.84-1.05,1.19-.35.35-.71.75-1.06,1.19-.26.26-.44.4-.53.4-1.23.26-2.24.86-3.03,1.78s-1.71,1.69-2.77,2.31c-1.67.97-3.32,1.96-4.94,2.97-1.63,1.01-3.32,2-5.08,2.97-1.14.62-2.31,1.19-3.49,1.71-1.19.53-2.4,1.05-3.63,1.58-.7.35-1.36.66-1.98.92-.61.26-1.23.53-1.85.79-.44.18-.9.26-1.38.26s-.95.04-1.38.13h-.26c-.97.26-1.87.57-2.7.92-.84.35-1.74.66-2.7.92-.7.18-1.39.31-2.04.4-.66.09-1.34.22-2.04.4h-.66c-1.23.79-2.46,1.1-3.69.92-1.23-.18-2.46-.18-3.69,0-.7.18-1.39.13-2.04-.13-.66-.26-1.34-.18-2.04.26-.26.26-.4.26-.4,0-.44-.35-.9-.55-1.39-.59-.48-.04-.99-.07-1.51-.07s-1.05-.07-1.58-.2c-.53-.13-.97-.42-1.32-.86-.18-.18-.31-.26-.4-.26-1.23.09-2.28-.26-3.16-1.05-.88-.79-1.84-1.36-2.9-1.71-.44-.18-.86-.44-1.25-.79-.39-.35-.81-.66-1.25-.92-.53-.44-1.03-.83-1.52-1.19-.48-.35-.94-.75-1.39-1.19-1.76-1.93-3.34-3.91-4.74-5.93-.97-1.32-1.76-2.77-2.37-4.35-.35-.7-.61-1.43-.79-2.18-.18-.75-.4-1.47-.66-2.17v-.13c.53-.79.64-1.56.33-2.31-.31-.75-.42-1.47-.33-2.17.09-.79.13-1.58.13-2.37s.04-1.54.13-2.24c.18-1.49.44-2.81.79-3.96.09-.26.26-.5.53-.73.27-.22.53-.42.79-.59.09.26.2.51.33.72.13.22.16.42.07.59,0,.53-.04,1.03-.13,1.52-.09.48.22.9.92,1.25.09,0,.13.22.13.66-.17.79-.17,1.54,0,2.24.18.7.44,1.41.79,2.11.18.44.28.9.33,1.38.04.48.11.95.2,1.38.18.62.33,1.21.46,1.78.13.57.2,1.21.2,1.91.09,1.23.46,2.31,1.12,3.23.66.92,1.21,1.87,1.65,2.83.44.79,1.1,1.32,1.98,1.58.88.26,1.8.44,2.77.53,1.14.09,2.26.15,3.36.2,1.1.04,2.22.02,3.36-.07.88,0,1.72-.09,2.51-.26.79-.18,1.58-.35,2.37-.53,1.14-.26,2.26-.5,3.36-.72,1.1-.22,2.22-.46,3.36-.73.53-.09,1.14-.4,1.85-.92.18,0,.28-.09.33-.26.04-.18.07-.35.07-.53,0-.97-.02-1.98-.07-3.03-.04-1.06-.07-2.11-.07-3.16-.09-1.85.04-3.69.4-5.54s.75-3.69,1.19-5.54c.44-1.93.86-3.82,1.25-5.67.4-1.85.9-3.69,1.51-5.54,1.06-2.99,2.15-5.91,3.3-8.77,1.14-2.86,2.28-5.73,3.43-8.64.35-.79.7-1.56,1.05-2.31.35-.75.66-1.47.92-2.17.18-.44.09-.83-.26-1.19-.35-.35-.72-.68-1.12-.99-.39-.31-.81-.68-1.25-1.12-.26-.26-.46-.53-.59-.79-.13-.26.02-.61.46-1.05ZM109.75,133.94c.35.35,1.01.55,1.98.59.97.04,1.63-.07,1.98-.33.09,0,.13-.04.13-.13s.04-.18.13-.26c-.09-.18-.31-.35-.66-.53-.17,0-.42.04-.72.13-.31.09-.55.04-.73-.13-.44-.26-.81-.31-1.12-.13-.31.18-.64.44-.99.79ZM115.15,134.34c-.79-.18-1.4.13-1.85.92v.66c.35,0,.57-.04.66-.13.27-.26.66-.75,1.19-1.45ZM114.75,136.58c.44-.18.81-.31,1.12-.4.31-.09.64-.22.99-.4-.26-.44-.35-.66-.26-.66-.88,0-1.49.48-1.85,1.45ZM122.4,134.47c-.09-.09-.13-.22-.13-.4-.17-.18-.33-.33-.46-.46s-.28-.28-.46-.46l-1.06,1.06c-.09,0-.17-.04-.26-.13.09-.18.13-.35.13-.53s.04-.35.13-.53c-.7-.09-1.19.02-1.45.33-.26.31-.48.73-.66,1.25-.35,1.32-.04,1.85.92,1.58,1.14-.18,2.24-.4,3.3-.66,1.05-.26,2.16-.48,3.3-.66.88-.18,1.73-.37,2.57-.59.84-.22,1.69-.46,2.57-.73.26-.09.53-.24.79-.46.26-.22.53-.46.79-.72.09,0,.13-.07.13-.2s-.04-.24-.13-.33c-.35-.18-.66-.35-.92-.53-.26-.18-.57-.31-.92-.4-.18-.09-.35,0-.53.26-.18.26-.35.48-.53.66-.18.09-.33.15-.46.2-.13.04-.29.11-.46.2-.44,0-.75.05-.92.13-.97.53-2.02,1.06-3.16,1.58-.09-.09-.13-.26-.13-.53v-.13c-.7-.53-1.23-.83-1.58-.92-.79,0-.7.48.26,1.45l-.66.66ZM135.32,135.26c-.35-.97-.84-1.19-1.45-.66-.35.18-.7.33-1.05.46-.35.13-.7.29-1.06.46-.09,0-.15.07-.2.2-.05.13-.16.24-.33.33.17.09.31.18.4.26.09.09.18.13.26.13.61-.18,1.19-.37,1.71-.59.53-.22,1.1-.42,1.72-.59ZM133.61,113.25c-.26.26-.4.48-.4.66-.18.53-.29,1.08-.33,1.65-.04.57-.16,1.17-.33,1.78,0,.09.04.18.13.26l.26.26c.44-.18.7-.4.79-.66.09-.18.11-.37.07-.59-.04-.22.02-.42.2-.59.53-.88.4-1.8-.4-2.77ZM133.34,111.4c.26.18.48.35.66.53.17.18.35.31.53.4.09,0,.26-.11.53-.33.26-.22.35-.37.26-.46-.09-.35-.4-.79-.92-1.32-.18.26-.53.66-1.05,1.19ZM135.98,107.97c.17-.53.33-.97.46-1.32.13-.35.24-.7.33-1.06.18-.44.26-.83.26-1.19s.09-.75.26-1.19c.35-1.23.7-2.39,1.05-3.49.35-1.1.75-2.26,1.19-3.49.09-.09.04-.31-.13-.66-.18.09-.33.13-.46.13s-.2.09-.2.26c-.35.7-.75,1.45-1.19,2.24s-.66,1.58-.66,2.37-.11,1.52-.33,2.17c-.22.66-.51,1.34-.86,2.04-.26.44-.42.92-.46,1.45-.04.53.2,1.1.73,1.71ZM145.6,124.32c0,.18.02.29.07.33.04.04.07.11.07.2-.35.26-.7.51-1.05.72-.35.22-.71.42-1.05.59-.62.44-1.23.84-1.85,1.19-.62.35-1.28.75-1.98,1.19-.09.09-.13.22-.13.4v.53c.17,0,.35.02.53.07.17.05.35.02.53-.07.18-.09.33-.18.46-.26.13-.09.28-.18.46-.26.79-.35,1.56-.7,2.31-1.05.75-.35,1.52-.75,2.31-1.19.35-.18.66-.33.92-.46.26-.13.61-.28,1.05-.46.44-.18.9-.33,1.39-.46.48-.13.9-.33,1.25-.59.61-.61,1.27-1.08,1.98-1.38.7-.31,1.36-.81,1.98-1.52.44-.61,1.05-1.12,1.84-1.52.79-.4,1.54-.86,2.24-1.38l7.91-5.54c.7-.44,1.34-.94,1.91-1.52.57-.57,1.3-.9,2.17-.99.09,0,.2-.09.33-.26.13-.18.2-.35.2-.53,0-.09-.09-.18-.26-.26-.18-.09-.31-.13-.4-.13-.18,0-.35.04-.53.13-.18.09-.35.18-.53.26-.88.53-1.74,1.1-2.57,1.71-.84.62-1.74,1.14-2.7,1.58-.44.18-.81.4-1.12.66s-.46.66-.46,1.19c0,.18-.22.35-.66.53-.18.09-.33.13-.46.13s-.29.09-.46.26c-.88.44-1.74.95-2.57,1.52-.84.57-1.74,1.08-2.7,1.52-1.23.62-2.42,1.21-3.56,1.78-1.14.57-2.29,1.17-3.43,1.78-.09.09-.15.13-.2.13s-.11.05-.2.13c-.71,1.41-1.72,1.85-3.03,1.32ZM141.52,132.89c.35-.18.66-.26.92-.26s.48-.09.66-.26c.53-.26,1.03-.53,1.52-.79.48-.26.94-.53,1.38-.79l6.33-2.77c.44-.18.86-.37,1.25-.59.4-.22.81-.42,1.25-.59.17-.09.31-.2.4-.33.09-.13.22-.28.4-.46.17-.26.35-.53.53-.79.17-.26.4-.48.66-.66.61-.35,1.21-.66,1.78-.92.57-.26,1.16-.61,1.78-1.05.35-.18.53-.44.53-.79,0-.44-.18-.66-.53-.66-.09-.09-.35,0-.79.26l-.4.4c-.79.44-1.58.86-2.37,1.25-.79.4-1.41,1.03-1.85,1.91-.18.18-.4.26-.66.26-.44.18-.86.31-1.25.4-.4.09-.81.22-1.25.4-.27.18-.53.42-.79.73-.26.31-.57.55-.92.72-.18.18-.35.33-.53.46s-.35.24-.53.33c-.79.35-1.56.68-2.31.99-.75.31-1.52.64-2.31.99-.18.09-.35.13-.53.13h-.53c-.62-.35-1.14-.18-1.58.53-.18.44-.35.81-.53,1.12-.18.31-.53.46-1.05.46-.09,0-.18.11-.26.33-.09.22-.13.37-.13.46.26.35.55.66.86.92.31.26.77.22,1.38-.13-.09-.26-.26-.66-.53-1.19ZM148.5,105.6c-.35.44-.66.9-.92,1.38-.26.48-.53.95-.79,1.38-.18.26-.26.55-.26.86s-.09.55-.26.72c-.79.7-1.36,1.5-1.72,2.37-.35.88-.7,1.76-1.05,2.64-.35.88-.62,1.74-.79,2.57-.18.84-.4,1.69-.66,2.57-.09.35-.22.97-.39,1.85-.09.18-.13.48-.13.92.17-.09.33-.15.46-.2.13-.04.28-.11.46-.2.26-.18.53-.33.79-.46.27-.13.53-.28.79-.46.35-.18.7-.31,1.05-.4.35-.09.7-.22,1.06-.4.97-.53,1.93-1.07,2.9-1.65.97-.57,1.93-1.12,2.9-1.65.97-.53,1.89-1.03,2.77-1.52.88-.48,1.76-.99,2.64-1.52.88-.53,1.69-1.1,2.44-1.71.75-.61,1.51-1.19,2.31-1.71,2.02-1.58,4.04-3.14,6.06-4.68,2.02-1.54,4.04-3.05,6.07-4.55,1.58-1.23,3.14-2.48,4.68-3.76,1.54-1.27,3.01-2.66,4.42-4.15,2.02-2.29,4.04-4.57,6.06-6.86,2.02-2.29,4.04-4.61,6.06-6.99.97-1.14,1.87-2.35,2.7-3.63.83-1.27,1.6-2.57,2.31-3.89,2.28-3.6,4-7.34,5.14-11.21.18-.44.26-1.14.26-2.11,0-.44-.22-.66-.66-.66h-1.25c-.4,0-.81.09-1.25.26-1.85.44-3.67.92-5.47,1.45s-3.62,1.05-5.47,1.58h-.26c-1.06.44-2.09.84-3.1,1.19-1.01.35-2.04.66-3.1.92-1.05.44-2.02,1.01-2.9,1.71-.7.7-1.45,1.38-2.24,2.04-.79.66-1.58,1.34-2.37,2.04-.18.18-.39.31-.66.4-.26.09-.57.22-.92.4-.44.18-.9.29-1.39.33-.48.05-.94.2-1.38.46-1.05.7-2.11,1.41-3.16,2.11-1.05.7-2.24,1.19-3.56,1.45-1.06.18-2.07.59-3.03,1.25-.97.66-1.67,1.61-2.11,2.83-.18.44-.37.88-.59,1.32-.22.44-.55.75-.99.92-.18,0-.29.07-.33.2-.05.13-.11.24-.2.33l-3.16,6.72c-.35.62-.68,1.19-.99,1.71-.31.53-.6,1.1-.86,1.71-.27.44-.51.92-.73,1.45-.22.53-.42,1.01-.59,1.45-.18-.09-.35-.15-.53-.2-.18-.04-.48-.15-.92-.33.09.35.13.66.13.92s.09.44.26.53c.35.18.46.38.33.59-.13.22-.29.46-.46.72-.18.26-.33.53-.46.79-.13.26-.24.53-.33.79-.18.7-.37,1.41-.59,2.11-.22.7-.42,1.41-.59,2.11l-.79-.79c-.18-.09-.33-.13-.46-.13s-.28-.04-.46-.13v.92c0,.18.04.35.13.53.09.18.09.35,0,.53-.61.79-.57,1.41.13,1.85ZM170.52,115.22v-.53c-.18-.09-.33-.18-.46-.26-.13-.09-.29-.09-.46,0-.62.26-1.19.66-1.71,1.19v.66c.44-.18.88-.35,1.32-.53.44-.18.88-.35,1.32-.53ZM177.64,108.9c.18.09.28.18.33.26.04.09.11.18.2.26.18-.18.4-.37.66-.59.26-.22.48-.42.66-.59l-.4-.4c-.26.18-.51.35-.72.53-.22.18-.46.35-.73.53Z"/></g></svg>