<svg xmlns="http://www.w3.org/2000/svg" width="1200" height="675" viewBox="0 0 1200 675" fill="none" font-family="Poppins, system-ui, -apple-system, 'Segoe UI', Roboto, sans-serif">
  <rect width="1200" height="675" fill="#0e0e0e"/>
  <!-- window chrome -->
  <rect x="0" y="0" width="1200" height="48" fill="#090909"/>
  <circle cx="28" cy="24" r="6" fill="#f86343"/>
  <circle cx="50" cy="24" r="6" fill="#7a7060"/>
  <circle cx="72" cy="24" r="6" fill="#7a7060"/>
  <line x1="0" y1="48" x2="1200" y2="48" stroke="#1c1c1c"/>

  <!-- sidebar -->
  <rect x="0" y="48" width="220" height="627" fill="#090909"/>
  <line x1="220" y1="48" x2="220" y2="675" stroke="#1c1c1c"/>
  <rect x="32" y="96" width="120" height="14" rx="7" fill="#f5f0e8" opacity="0.18"/>
  <rect x="32" y="150" width="156" height="12" rx="6" fill="#f86343" opacity="0.7"/>
  <rect x="32" y="186" width="140" height="12" rx="6" fill="#f5f0e8" opacity="0.10"/>
  <rect x="32" y="222" width="150" height="12" rx="6" fill="#f5f0e8" opacity="0.10"/>
  <rect x="32" y="258" width="130" height="12" rx="6" fill="#f5f0e8" opacity="0.10"/>

  <!-- content rows -->
  <rect x="260" y="96" width="260" height="20" rx="6" fill="#f5f0e8" opacity="0.2"/>
  <g>
    <rect x="260" y="160" width="880" height="70" rx="10" fill="#141414" stroke="#1c1c1c"/>
    <rect x="284" y="186" width="200" height="14" rx="7" fill="#f5f0e8" opacity="0.16"/>
    <rect x="284" y="208" width="120" height="10" rx="5" fill="#f5f0e8" opacity="0.08"/>
    <rect x="1040" y="184" width="76" height="30" rx="15" fill="#f86343"/>
    <rect x="260" y="246" width="880" height="70" rx="10" fill="#141414" stroke="#1c1c1c"/>
    <rect x="284" y="272" width="240" height="14" rx="7" fill="#f5f0e8" opacity="0.16"/>
    <rect x="284" y="294" width="120" height="10" rx="5" fill="#f5f0e8" opacity="0.08"/>
    <rect x="260" y="332" width="880" height="70" rx="10" fill="#141414" stroke="#1c1c1c"/>
    <rect x="284" y="358" width="180" height="14" rx="7" fill="#f5f0e8" opacity="0.16"/>
    <rect x="284" y="380" width="120" height="10" rx="5" fill="#f5f0e8" opacity="0.08"/>
  </g>

  <text x="600" y="600" text-anchor="middle" fill="#7a7060" font-size="20" letter-spacing="4">SCREENSHOT PLACEHOLDER</text>
</svg>
